<svg width="150" height="50" viewBox="0 0 150 50" fill="none" xmlns="http://www.w3.org/2000/svg">
<g clip-path="url(#clip0_3339_21096)">
<path d="M138.055 0H11.9519C11.4919 0 11.0369 0 10.5793 0.0025C10.1958 0.005 9.8147 0.0125 9.42737 0.01875C8.58567 0.0279154 7.74589 0.101044 6.91534 0.2375C6.08642 0.377759 5.28349 0.641985 4.53367 1.02125C3.78371 1.40419 3.09851 1.90189 2.50298 2.49625C1.90538 3.0879 1.40721 3.77166 1.0276 4.52125C0.646632 5.26981 0.382444 6.07196 0.244157 6.9C0.104677 7.72714 0.0296597 8.56381 0.0197792 9.4025C0.00724411 9.78625 0.00724411 10.1712 0.000976562 10.5538V39.45C0.00724411 39.8375 0.00849762 40.2125 0.0197792 40.6012C0.030069 41.44 0.105505 42.2766 0.245411 43.1038C0.382805 43.9326 0.646589 44.7357 1.0276 45.485C1.40757 46.2317 1.90623 46.9122 2.50424 47.5C3.09683 48.0963 3.78161 48.5939 4.53241 48.9738C5.28267 49.3538 6.08595 49.6193 6.91534 49.7612C7.74597 49.8974 8.58566 49.9714 9.42737 49.9825C9.81596 49.9912 10.1958 49.9963 10.5793 49.9963C11.0381 49.9988 11.4919 49.9987 11.9519 49.9987H138.055C138.506 49.9987 138.963 49.9988 139.414 49.9963C139.795 49.9963 140.187 49.9912 140.57 49.9837C141.41 49.9728 142.248 49.8984 143.077 49.7612C143.909 49.6182 144.715 49.3528 145.468 48.9738C146.219 48.5938 146.903 48.0962 147.495 47.5C148.092 46.9092 148.592 46.2283 148.977 45.4825C149.355 44.7327 149.617 43.9297 149.753 43.1012C149.892 42.274 149.97 41.4375 149.985 40.5988C149.99 40.2113 149.99 39.8363 149.99 39.4475C150 38.9925 150 38.5413 150 38.08V11.92C150 11.4625 150 11.0075 149.99 10.555C149.99 10.1725 149.99 9.7875 149.985 9.405C149.97 8.56583 149.892 7.72893 149.753 6.90125C149.616 6.07363 149.354 5.27154 148.976 4.5225C148.202 3.01889 146.976 1.79485 145.468 1.0225C144.715 0.644091 143.908 0.379933 143.077 0.23875C142.248 0.101297 141.41 0.027746 140.57 0.01875C140.187 0.0125 139.795 0.005 139.414 0.0025C138.963 0 138.505 0 138.055 0Z" fill="#A6A6A6"/>
<path d="M10.5863 48.9062C10.204 48.9062 9.83169 48.9013 9.45313 48.8938C8.66777 48.8832 7.88427 48.8147 7.10907 48.6888C6.38684 48.5645 5.68722 48.3337 5.03325 48.0037C4.38505 47.6768 3.79378 47.2479 3.2821 46.7337C2.76323 46.2251 2.33133 45.6352 2.00352 44.9875C1.67142 44.3359 1.44145 43.6374 1.32161 42.9163C1.19287 42.1414 1.12331 41.3579 1.11353 40.5725C1.10475 40.31 1.09473 39.4313 1.09473 39.4313V10.5562C1.09473 10.5562 1.10601 9.69125 1.11353 9.4375C1.12287 8.6534 1.19201 7.87114 1.32036 7.0975C1.44021 6.3744 1.67017 5.67382 2.00227 5.02C2.32907 4.37288 2.75873 3.78275 3.27458 3.2725C3.78972 2.75722 4.38274 2.32572 5.032 1.99375C5.68463 1.66486 6.38311 1.43564 7.10405 1.31375C7.88168 1.18695 8.66774 1.11843 9.45564 1.10875L10.5863 1.09375H139.408L140.553 1.11C141.333 1.11903 142.112 1.18672 142.882 1.3125C143.61 1.4359 144.316 1.66676 144.976 1.9975C146.277 2.6661 147.336 3.72385 148.004 5.0225C148.33 5.67193 148.556 6.36688 148.674 7.08375C148.804 7.86366 148.877 8.652 148.892 9.4425C148.896 9.79625 148.896 10.1775 148.896 10.555C148.906 11.0238 148.906 11.47 148.906 11.92V38.0812C148.906 38.535 148.906 38.9788 148.896 39.425C148.896 39.8312 148.896 40.2038 148.891 40.5875C148.877 41.3637 148.806 42.1379 148.678 42.9038C148.561 43.6301 148.333 44.3341 148.001 44.9912C147.671 45.6319 147.241 46.2166 146.728 46.7238C146.215 47.2408 145.623 47.6722 144.973 48.0013C144.314 48.3338 143.609 48.5656 142.882 48.6888C142.107 48.8149 141.324 48.883 140.539 48.8925C140.172 48.9012 139.787 48.9062 139.415 48.9062L138.056 48.9087L10.5863 48.9062Z" fill="black"/>
<path d="M31.0486 25.3754C31.0622 24.3324 31.3401 23.3097 31.8565 22.4025C32.3728 21.4953 33.1108 20.7331 34.0018 20.1866C33.4357 19.3803 32.689 18.7167 31.8208 18.2485C30.9526 17.7802 29.9869 17.5202 29.0003 17.4891C26.8944 17.2691 24.8537 18.7454 23.7807 18.7454C22.6877 18.7454 21.0355 17.5104 19.2581 17.5479C18.1077 17.5849 16.9866 17.9185 16.004 18.5161C15.0213 19.1137 14.2107 19.955 13.6511 20.9579C11.2268 25.1429 13.0356 31.2941 15.3571 34.6779C16.5191 36.3341 17.8767 38.1841 19.6542 38.1191C21.3928 38.0466 22.0421 37.0129 24.1417 37.0129C26.2201 37.0129 26.8293 38.1191 28.6418 38.0779C30.5083 38.0466 31.6828 36.4129 32.8035 34.7404C33.6389 33.5603 34.282 32.2558 34.7088 30.8754C33.6246 30.4183 32.6992 29.653 32.0483 28.6749C31.3974 27.6968 31.0497 26.5493 31.0486 25.3754ZM27.624 15.2629C28.6413 14.0454 29.1427 12.4805 29.0216 10.9004C27.4672 11.0631 26.0314 11.804 25.0004 12.9754C24.4964 13.5472 24.1104 14.2125 23.8643 14.9331C23.6183 15.6538 23.517 16.4157 23.5664 17.1754C24.3437 17.1834 25.1128 17.0154 25.8156 16.6842C26.5184 16.3529 27.1367 15.8669 27.624 15.2629Z" fill="white"/>
<path d="M53.0264 33.9251H47.0948L45.6695 38.1201H43.1562L48.777 22.5976H51.388L57.0075 38.1201H54.4516L53.0264 33.9251ZM47.7077 31.9876H52.4109L50.0919 25.1801H50.028L47.7077 31.9876ZM69.144 32.4626C69.144 35.9789 67.2562 38.2376 64.407 38.2376C63.6857 38.2751 62.9683 38.1094 62.337 37.7595C61.7057 37.4096 61.1859 36.8895 60.837 36.2589H60.7831V41.8639H58.4516V26.8026H60.7079V28.6851H60.7493C61.1141 28.0572 61.6429 27.5396 62.2792 27.1874C62.9156 26.8352 63.6357 26.6617 64.3631 26.6851C67.2437 26.6851 69.144 28.9551 69.144 32.4626ZM66.7498 32.4626C66.7498 30.1714 65.5615 28.6651 63.7502 28.6651C61.9702 28.6651 60.7731 30.2026 60.7731 32.4626C60.7731 34.7426 61.9702 36.2701 63.7502 36.2701C65.5615 36.2701 66.7498 34.7739 66.7498 32.4626ZM81.6352 32.4626C81.6352 35.9789 79.7475 38.2376 76.8982 38.2376C76.1769 38.2751 75.4596 38.1094 74.8282 37.7595C74.1969 37.4096 73.6771 36.8895 73.3282 36.2589H73.2743V41.8639H70.9441V26.8026H73.1991V28.6851H73.2417C73.6066 28.0572 74.1353 27.5396 74.7717 27.1874C75.408 26.8352 76.1282 26.6617 76.8556 26.6851C79.7362 26.6851 81.6352 28.9551 81.6352 32.4626ZM79.241 32.4626C79.241 30.1714 78.0527 28.6651 76.2414 28.6651C74.4614 28.6651 73.2643 30.2026 73.2643 32.4626C73.2643 34.7426 74.4614 36.2701 76.2414 36.2701C78.0527 36.2701 79.241 34.7739 79.241 32.4626ZM89.8896 33.7951C90.0626 35.3351 91.5618 36.3451 93.6125 36.3451C95.5755 36.3451 96.9882 35.3351 96.9882 33.9464C96.9882 32.7414 96.1358 32.0214 94.1177 31.5264L92.1008 31.0414C89.2428 30.3539 87.9153 29.0201 87.9153 26.8564C87.9153 24.1789 90.2556 22.3389 93.5799 22.3389C96.8691 22.3389 99.1242 24.1789 99.1994 26.8564H96.8478C96.7074 25.3076 95.4238 24.3726 93.5461 24.3726C91.6683 24.3726 90.386 25.3189 90.386 26.6951C90.386 27.7926 91.2058 28.4389 93.2127 28.9326L94.9274 29.3526C98.1214 30.1064 99.4476 31.3851 99.4476 33.6564C99.4476 36.5601 97.1286 38.3789 93.4395 38.3789C89.9874 38.3789 87.6558 36.6039 87.5054 33.7951H89.8896ZM104.475 24.1251V26.8026H106.634V28.6426H104.475V34.8814C104.475 35.8514 104.908 36.3026 105.857 36.3026C106.113 36.2981 106.369 36.2802 106.623 36.2489V38.0776C106.196 38.1571 105.763 38.1931 105.329 38.1851C103.031 38.1851 102.135 37.3239 102.135 35.1289V28.6426H100.486V26.8026H102.135V24.1251H104.475ZM107.884 32.4626C107.884 28.9014 109.987 26.6639 113.266 26.6639C116.557 26.6639 118.65 28.9014 118.65 32.4626C118.65 36.0326 116.568 38.2601 113.266 38.2601C109.966 38.2601 107.884 36.0326 107.884 32.4626ZM116.276 32.4626C116.276 30.0201 115.154 28.5776 113.266 28.5776C111.379 28.5776 110.258 30.0301 110.258 32.4626C110.258 34.9151 111.379 36.3451 113.266 36.3451C115.154 36.3451 116.276 34.9151 116.276 32.4626ZM120.571 26.8026H122.793V28.7289H122.847C122.997 28.1277 123.351 27.5964 123.848 27.2243C124.345 26.8521 124.955 26.6618 125.576 26.6851C125.844 26.684 126.112 26.7129 126.374 26.7714V28.9439C126.035 28.8407 125.682 28.7934 125.328 28.8039C124.989 28.7902 124.652 28.8497 124.338 28.9782C124.025 29.1068 123.744 29.3015 123.513 29.5489C123.282 29.7962 123.108 30.0904 123.002 30.4113C122.896 30.7321 122.861 31.072 122.9 31.4076V38.1201H120.571V26.8026ZM137.114 34.7964C136.801 36.8501 134.795 38.2601 132.228 38.2601C128.926 38.2601 126.877 36.0551 126.877 32.5164C126.877 28.9664 128.938 26.6639 132.129 26.6639C135.27 26.6639 137.243 28.8139 137.243 32.2464V33.0426H129.229V33.1826C129.192 33.5991 129.244 34.0187 129.382 34.4135C129.52 34.8082 129.741 35.1692 130.03 35.4723C130.319 35.7754 130.669 36.0138 131.057 36.1716C131.446 36.3294 131.863 36.4031 132.282 36.3876C132.832 36.4389 133.384 36.3118 133.857 36.0251C134.329 35.7384 134.695 35.3075 134.902 34.7964H137.114ZM129.24 31.4189H134.913C134.934 31.0444 134.877 30.6697 134.746 30.3182C134.615 29.9667 134.412 29.646 134.151 29.3763C133.89 29.1066 133.575 28.8936 133.228 28.7508C132.88 28.608 132.506 28.5384 132.13 28.5464C131.751 28.5441 131.375 28.6167 131.024 28.7601C130.673 28.9035 130.354 29.1149 130.085 29.3819C129.816 29.649 129.603 29.9665 129.458 30.3161C129.313 30.6657 129.239 31.0405 129.24 31.4189Z" fill="white"/>
<path d="M47.4152 10.9134C47.9036 10.8785 48.3937 10.952 48.8502 11.1288C49.3066 11.3056 49.718 11.5812 50.0548 11.9358C50.3915 12.2903 50.6451 12.715 50.7973 13.1791C50.9495 13.6432 50.9966 14.1352 50.935 14.6196C50.935 17.0021 49.6439 18.3721 47.4152 18.3721H44.7139V10.9121L47.4152 10.9134ZM45.8759 17.3171H47.2861C47.635 17.3378 47.9841 17.2806 48.308 17.1497C48.632 17.0189 48.9226 16.8177 49.1588 16.5608C49.3949 16.3038 49.5707 15.9976 49.6733 15.6644C49.7758 15.3313 49.8026 14.9795 49.7517 14.6346C49.799 14.2912 49.7695 13.9415 49.6654 13.6107C49.5613 13.2799 49.3851 12.9762 49.1495 12.7213C48.9139 12.4664 48.6246 12.2665 48.3024 12.1362C47.9803 12.0058 47.6332 11.9481 47.2861 11.9671H45.8759V17.3171ZM52.2462 15.5546C52.2121 15.1854 52.2556 14.8132 52.3739 14.4617C52.4921 14.1102 52.6826 13.7872 52.9332 13.5132C53.1838 13.2393 53.4888 13.0205 53.829 12.8708C54.1691 12.7211 54.5369 12.6437 54.9087 12.6437C55.2805 12.6437 55.6482 12.7211 55.9883 12.8708C56.3285 13.0205 56.6336 13.2393 56.8841 13.5132C57.1347 13.7872 57.3252 14.1102 57.4435 14.4617C57.5618 14.8132 57.6052 15.1854 57.5711 15.5546C57.6081 15.9254 57.5669 16.2998 57.4499 16.6537C57.333 17.0075 57.143 17.3331 56.8923 17.6093C56.6415 17.8855 56.3355 18.1062 55.994 18.2573C55.6524 18.4084 55.2829 18.4864 54.9093 18.4864C54.5357 18.4864 54.1662 18.4084 53.8246 18.2573C53.4831 18.1062 53.1771 17.8855 52.9263 17.6093C52.6755 17.3331 52.4856 17.0075 52.3686 16.6537C52.2517 16.2998 52.2092 15.9254 52.2462 15.5546ZM56.4254 15.5546C56.4254 14.3346 55.8751 13.6209 54.9112 13.6209C53.9422 13.6209 53.3982 14.3346 53.3982 15.5546C53.3982 16.7846 53.9422 17.4921 54.9112 17.4921C55.8764 17.4921 56.4254 16.7796 56.4254 15.5546ZM64.6472 18.3721H63.4914L62.3257 14.2259H62.2379L61.0759 18.3721H59.9315L58.3746 12.7434H59.5053L60.5156 17.0384H60.5996L61.7603 12.7434H62.8283L63.9891 17.0384H64.0768L65.0834 12.7434H66.1978L64.6472 18.3721ZM67.5064 12.7434H68.5782V13.6371H68.6609C68.8022 13.316 69.0404 13.0468 69.3424 12.8671C69.6444 12.6874 69.9951 12.6061 70.3456 12.6346C70.6203 12.6141 70.8961 12.6554 71.1526 12.7555C71.4091 12.8557 71.6397 13.012 71.8274 13.2131C72.0151 13.4142 72.155 13.6548 72.2368 13.9171C72.3186 14.1794 72.3401 14.4567 72.2999 14.7284V18.3721H71.1855V15.0071C71.1855 14.1021 70.7919 13.6521 69.9671 13.6521C69.7806 13.6435 69.5945 13.6752 69.4215 13.745C69.2485 13.8148 69.0927 13.9211 68.9647 14.0566C68.8367 14.192 68.7396 14.3535 68.6801 14.5298C68.6205 14.7062 68.5998 14.8933 68.6196 15.0784V18.3721H67.5064V12.7434ZM74.0748 10.5459H75.1879V18.3709H74.0748V10.5459ZM76.7373 15.5546C76.7022 15.185 76.7449 14.8121 76.8627 14.4598C76.9805 14.1075 77.1708 13.7837 77.4214 13.509C77.672 13.2344 77.9773 13.0149 78.3179 12.8648C78.6585 12.7146 79.0267 12.637 79.3991 12.637C79.7715 12.637 80.1398 12.7146 80.4803 12.8648C80.8209 13.0149 81.1262 13.2344 81.3768 13.509C81.6274 13.7837 81.8177 14.1075 81.9355 14.4598C82.0533 14.8121 82.096 15.185 82.0609 15.5546C82.0979 15.9254 82.0567 16.2998 81.9398 16.6537C81.8228 17.0075 81.6329 17.3331 81.3821 17.6093C81.1313 17.8855 80.8253 18.1062 80.4838 18.2573C80.1422 18.4084 79.7727 18.4864 79.3991 18.4864C79.0255 18.4864 78.656 18.4084 78.3144 18.2573C77.9729 18.1062 77.6669 17.8855 77.4161 17.6093C77.1653 17.3331 76.9754 17.0075 76.8585 16.6537C76.7415 16.2998 76.7003 15.9254 76.7373 15.5546ZM80.9152 15.5546C80.9152 14.3346 80.3649 13.6209 79.401 13.6209C78.432 13.6209 77.888 14.3346 77.888 15.5546C77.888 16.7846 78.432 17.4921 79.401 17.4921C80.3662 17.4921 80.9152 16.7796 80.9152 15.5546ZM83.233 16.7796C83.233 15.7671 83.9901 15.1821 85.3338 15.0996L86.8631 15.0121V14.5259C86.8631 13.9321 86.4683 13.5959 85.7074 13.5959C85.0844 13.5959 84.6544 13.8234 84.5303 14.2209H83.4523C83.5651 13.2546 84.4777 12.6334 85.7588 12.6334C87.1727 12.6334 87.9712 13.3371 87.9712 14.5259V18.3721H86.8995V17.5809H86.8117C86.6328 17.8647 86.3815 18.0961 86.0835 18.2514C85.7855 18.4066 85.4516 18.4802 85.1157 18.4646C84.8787 18.4893 84.6392 18.4641 84.4125 18.3907C84.1859 18.3173 83.9772 18.1974 83.7999 18.0386C83.6226 17.8799 83.4807 17.6858 83.3832 17.4689C83.2858 17.2521 83.2338 17.0173 83.233 16.7796ZM86.8619 16.2996V15.8284L85.483 15.9159C84.7058 15.9684 84.3549 16.2321 84.3549 16.7284C84.3549 17.2346 84.7948 17.5284 85.4003 17.5284C85.5777 17.5462 85.7569 17.5284 85.9272 17.4758C86.0976 17.4233 86.2556 17.3371 86.3919 17.2225C86.5282 17.1079 86.6401 16.9672 86.7208 16.8087C86.8015 16.6501 86.8495 16.477 86.8619 16.2996ZM89.4353 15.5546C89.4353 13.7759 90.3529 12.6496 91.7794 12.6496C92.132 12.6336 92.4818 12.718 92.7882 12.8929C93.0945 13.0677 93.3445 13.3259 93.5092 13.6371H93.5932V10.5459H94.7063V18.3709H93.6396V17.4834H93.5519C93.3741 17.7928 93.1149 18.0478 92.8023 18.2207C92.4896 18.3937 92.1354 18.4781 91.7781 18.4646C90.3429 18.4646 89.4353 17.3384 89.4353 15.5546ZM90.5861 15.5546C90.5861 16.7484 91.1501 17.4671 92.094 17.4671C93.0342 17.4671 93.6133 16.7384 93.6133 15.5596C93.6133 14.3871 93.0266 13.6471 92.094 13.6471C91.1564 13.6471 90.5861 14.3721 90.5861 15.5546ZM99.3155 15.5546C99.2804 15.185 99.3231 14.8121 99.4409 14.4598C99.5587 14.1075 99.749 13.7837 99.9996 13.509C100.25 13.2344 100.556 13.0149 100.896 12.8648C101.237 12.7146 101.605 12.637 101.977 12.637C102.35 12.637 102.718 12.7146 103.059 12.8648C103.399 13.0149 103.704 13.2344 103.955 13.509C104.206 13.7837 104.396 14.1075 104.514 14.4598C104.632 14.8121 104.674 15.185 104.639 15.5546C104.676 15.9254 104.635 16.2998 104.518 16.6537C104.401 17.0075 104.211 17.3331 103.96 17.6093C103.71 17.8855 103.404 18.1062 103.062 18.2573C102.72 18.4084 102.351 18.4864 101.977 18.4864C101.604 18.4864 101.234 18.4084 100.893 18.2573C100.551 18.1062 100.245 17.8855 99.9943 17.6093C99.7436 17.3331 99.5536 17.0075 99.4367 16.6537C99.3198 16.2998 99.2785 15.9254 99.3155 15.5546ZM103.493 15.5546C103.493 14.3346 102.944 13.6209 101.979 13.6209C101.012 13.6209 100.466 14.3346 100.466 15.5546C100.466 16.7846 101.012 17.4921 101.979 17.4921C102.944 17.4921 103.493 16.7796 103.493 15.5546ZM106.135 12.7434H107.206V13.6371H107.289C107.43 13.316 107.669 13.0468 107.971 12.8671C108.273 12.6874 108.623 12.6061 108.974 12.6346C109.248 12.6141 109.524 12.6554 109.781 12.7555C110.037 12.8557 110.268 13.012 110.456 13.2131C110.643 13.4142 110.783 13.6548 110.865 13.9171C110.947 14.1794 110.968 14.4567 110.928 14.7284V18.3721H109.814V15.0071C109.814 14.1021 109.42 13.6521 108.595 13.6521C108.409 13.6435 108.223 13.6752 108.05 13.745C107.877 13.8148 107.721 13.9211 107.593 14.0566C107.465 14.192 107.368 14.3535 107.308 14.5298C107.249 14.7062 107.228 14.8933 107.248 15.0784V18.3721H106.133L106.135 12.7434ZM117.222 11.3421V12.7684H118.445V13.7046H117.222V16.5984C117.222 17.1884 117.465 17.4471 118.02 17.4471C118.162 17.4465 118.304 17.4377 118.445 17.4209V18.3459C118.245 18.3819 118.042 18.4011 117.839 18.4034C116.6 18.4034 116.108 17.9684 116.108 16.8834V13.7046H115.211V12.7684H116.108V11.3421H117.222ZM119.967 10.5459H121.07V13.6471H121.158C121.306 13.323 121.551 13.0523 121.859 12.872C122.168 12.6917 122.524 12.6106 122.88 12.6396C123.153 12.6249 123.427 12.6704 123.68 12.773C123.934 12.8756 124.161 13.0328 124.347 13.2332C124.532 13.4337 124.671 13.6726 124.754 13.9327C124.836 14.1929 124.86 14.468 124.823 14.7384V18.3721H123.709V15.0121C123.709 14.1121 123.289 13.6571 122.502 13.6571C122.31 13.6415 122.117 13.6677 121.937 13.734C121.757 13.8004 121.593 13.9052 121.458 14.0412C121.323 14.1771 121.219 14.341 121.153 14.5212C121.088 14.7015 121.063 14.8938 121.08 15.0846V18.3721H119.967V10.5459ZM131.319 16.8521C131.168 17.3664 130.84 17.8112 130.393 18.1089C129.946 18.4067 129.409 18.5383 128.875 18.4809C128.502 18.4909 128.133 18.4201 127.791 18.2732C127.449 18.1263 127.143 17.907 126.895 17.6304C126.647 17.3538 126.462 17.0267 126.353 16.6717C126.245 16.3167 126.215 15.9423 126.266 15.5746C126.217 15.2061 126.247 14.8313 126.356 14.4756C126.464 14.1198 126.648 13.7915 126.895 13.5127C127.141 13.234 127.445 13.0113 127.786 12.8598C128.126 12.7083 128.495 12.6316 128.868 12.6346C130.439 12.6346 131.387 13.7046 131.387 15.4721V15.8596H127.4V15.9221C127.383 16.1288 127.409 16.3368 127.477 16.5328C127.545 16.7289 127.653 16.9086 127.795 17.0604C127.936 17.2122 128.108 17.3329 128.299 17.4145C128.49 17.4962 128.697 17.5371 128.905 17.5346C129.171 17.5661 129.44 17.518 129.679 17.3965C129.918 17.275 130.115 17.0855 130.246 16.8521H131.319ZM127.4 15.0384H130.252C130.266 14.8494 130.241 14.6594 130.177 14.4809C130.113 14.3023 130.012 14.139 129.881 14.0016C129.75 13.8642 129.592 13.7557 129.417 13.683C129.241 13.6103 129.052 13.5751 128.862 13.5796C128.669 13.5773 128.478 13.6134 128.3 13.6859C128.121 13.7584 127.959 13.8658 127.823 14.0017C127.687 14.1377 127.579 14.2994 127.506 14.4775C127.434 14.6555 127.398 14.8462 127.4 15.0384Z" fill="white"/>
</g>
<defs>
<clipPath id="clip0_3339_21096">
<rect width="150" height="50" fill="white"/>
</clipPath>
</defs>
</svg>
