<svg width="145" height="122" viewBox="0 0 145 122" fill="none" xmlns="http://www.w3.org/2000/svg">
<g clip-path="url(#clip0_250_7106)">
<path d="M135.516 83.9517C126.339 105.766 104.476 121.116 78.9634 121.116C53.4511 121.116 31.5874 105.766 22.4106 83.9517H27.7808C36.6502 103.024 56.2318 116.276 78.9634 116.276C101.695 116.276 121.276 103.024 130.146 83.9517H135.516ZM78.9634 0.884277C105.735 0.884277 128.489 17.7866 136.781 41.3247H131.542C123.472 20.5109 102.975 5.72314 78.9634 5.72314C54.9514 5.72325 34.4542 20.5109 26.3853 41.3247H21.146C29.4381 17.7866 52.1918 0.884385 78.9634 0.884277Z" fill="white"/>
<path d="M124.662 83.9521C116.147 100.375 98.7795 111.623 78.7383 111.623C58.6969 111.623 41.3289 100.375 32.8135 83.9521H35.1523C43.4901 99.2116 59.8803 109.589 78.7383 109.589C97.5961 109.589 113.986 99.2115 122.323 83.9521H124.662ZM78.7383 10.376C100.087 10.3761 118.401 23.1396 126.214 41.3252H123.955C116.27 24.2928 98.9177 12.4103 78.7383 12.4102C58.5587 12.4102 41.2051 24.2927 33.5205 41.3252H31.2617C39.0743 23.1394 57.3895 10.376 78.7383 10.376Z" fill="white"/>
<g filter="url(#filter0_d_250_7106)">
<path d="M49.0509 67.9493V55.4074C49.0509 54.2511 49.1124 52.7968 49.2353 51.0445H49.1218C48.8382 52.3698 48.6113 53.2549 48.4411 53.6996L43.0233 67.9493H39.2933L33.8046 53.833C33.6722 53.495 33.4406 52.5655 33.1096 51.0445H32.982C33.1049 52.779 33.1664 54.5179 33.1664 56.2613V67.9493H28.9399V47.2819H35.7476L40.4846 59.7704C40.8817 60.8022 41.1512 61.7718 41.293 62.679H41.3923C41.6854 61.5494 41.988 60.5709 42.3 59.7437L47.0512 47.2819H53.6745V67.9493H49.0509Z" fill="white"/>
<path d="M75.3433 67.9493H70.7906V65.6944H70.7197C69.5473 67.4378 67.9447 68.3095 65.9118 68.3095C62.2621 68.3095 60.4373 66.237 60.4373 62.092V53.1926H65.0183V61.6917C65.0183 63.8976 65.9354 65.0006 67.7697 65.0006C68.6869 65.0006 69.4196 64.6982 69.968 64.0933C70.5164 63.4885 70.7906 62.6701 70.7906 61.6383V53.1926H75.3433V67.9493Z" fill="white"/>
<path d="M96.7426 67.9493H92.19V59.717C92.19 57.3332 91.2776 56.1413 89.4527 56.1413C88.5829 56.1413 87.8595 56.4615 87.2828 57.1019C86.706 57.7335 86.4176 58.5429 86.4176 59.5302V67.9493H81.8366V53.1926H86.4176V55.5409H86.4744C87.6184 53.7352 89.3014 52.8323 91.5234 52.8323C95.0029 52.8323 96.7426 54.8604 96.7426 58.9165V67.9493Z" fill="white"/>
<path d="M112.228 67.7758C111.538 68.1316 110.493 68.3095 109.093 68.3095C105.765 68.3095 104.101 66.664 104.101 63.3728V56.4081H101.52V53.1926H104.101V49.9504L108.654 48.7229V53.1926H112.228V56.4081H108.654V62.6257C108.654 64.2001 109.316 64.9873 110.639 64.9873C111.15 64.9873 111.679 64.845 112.228 64.5603V67.7758Z" fill="white"/>
<path d="M116.934 48.4294C116.934 47.7711 117.18 47.2374 117.672 46.8283C118.173 46.4102 118.811 46.2012 119.586 46.2012C120.381 46.2012 121.023 46.4147 121.515 46.8416C122.007 47.2597 122.253 47.7889 122.253 48.4294C122.253 49.0787 122.002 49.6213 121.501 50.0571C121 50.4841 120.362 50.6976 119.586 50.6976C118.82 50.6976 118.187 50.4796 117.686 50.0438C117.185 49.6079 116.934 49.0698 116.934 48.4294ZM117.275 67.9493V53.1926H121.841V67.9493H117.275Z" fill="white"/>
</g>
<g filter="url(#filter1_d_250_7106)">
<path d="M136.905 53.3149H132.404L132.19 66.4898C132.19 72.8778 125.428 72.2296 122.251 70.469V74.1785C133.557 77.5502 136.731 71.3125 136.905 67.7722V64.3408V53.3149Z" fill="white"/>
<path d="M142.89 56.4223V53.2217H126.201V56.4223H142.89Z" fill="white"/>
</g>
<g filter="url(#filter2_d_250_7106)">
<path d="M81.2927 80.9133C75.6354 80.0105 13.9704 72.9022 0.958465 83.2905C-0.173001 83.8372 -0.173005 82.2885 0.958461 81.4601C19.6277 67.7912 84.1214 82.0068 114.105 79.2731C136.079 77.2696 132.775 66.151 133.906 64.5107C134.811 63.1985 136.716 63.953 136.887 65.5843C137.36 70.1124 137.3 89.8515 81.2927 80.9133Z" fill="white"/>
</g>
<path d="M137.003 75.5241C135.197 79.1558 130.607 81.1987 128.538 81.7661C133.053 81.7661 138.132 77.2265 139.825 74.9567C141.518 72.6868 142.647 67.5797 140.39 68.1472C138.132 68.7147 139.261 70.9845 137.003 75.5241Z" fill="white"/>
<path d="M20.377 72.1456C13.2248 72.5558 7.68126 75.0129 5.68432 76.2563C5.6146 76.2997 5.5752 76.375 5.5752 76.4571C5.5752 76.6365 5.76522 76.7528 5.92655 76.6743C12.0496 73.6936 17.5731 73.1905 19.8077 73.1905H19.8079C22.1556 73.1905 32.9015 73.1905 32.3323 72.6681C31.763 72.1456 29.4858 71.6231 20.377 72.1456Z" fill="white"/>
<path d="M100.931 29.1449L98.7375 32.2955L98.4171 32.0726L100.61 28.922C100.7 28.793 100.668 28.6152 100.539 28.5257C100.41 28.4362 100.232 28.468 100.143 28.597L97.9495 31.7475L97.6291 31.5246L99.8221 28.374C99.9116 28.2451 99.8798 28.0672 99.7508 27.9777C99.6218 27.8882 99.444 27.9201 99.3545 28.049L97.1614 31.1996L96.841 30.9767L99.0341 27.8261C99.1236 27.6971 99.0917 27.5193 98.9628 27.4298L98.9042 27.389C98.7752 27.2994 98.5974 27.3313 98.5079 27.4603L94.8768 32.6778C94.588 33.092 94.4995 33.5837 94.5875 34.0435C94.6698 34.4725 94.5839 34.9175 94.3344 35.2757L88.3041 43.945C88.0939 44.2458 88.1053 44.6646 88.363 44.9277C88.7083 45.281 89.2678 45.2208 89.5361 44.8366L95.5849 36.1441C95.8345 35.7846 96.2211 35.5511 96.6534 35.4787C97.115 35.4019 97.5447 35.1473 97.8335 34.7331L101.465 29.5155C101.554 29.3866 101.522 29.2087 101.393 29.1192L101.328 29.0737C101.199 28.9842 101.021 29.0161 100.932 29.145L100.931 29.1449Z" fill="white"/>
<path d="M95.3598 34.2238C95.247 33.9757 95.1831 33.7041 95.1778 33.4237C95.1746 33.2828 95.1963 33.1398 95.2468 32.9993C95.2581 32.9644 95.272 32.9297 95.2927 32.897C95.3121 32.8641 95.3274 32.8296 95.3532 32.8014C95.3763 32.773 95.4026 32.7394 95.4253 32.7151L95.4921 32.6435C95.6725 32.4505 95.843 32.2443 96.0202 32.0414C96.1946 31.8382 96.3718 31.634 96.5581 31.4373C96.4342 31.6792 96.2893 31.9083 96.1353 32.1311C95.9813 32.3539 95.8143 32.5673 95.6289 32.7709L95.5564 32.8448C95.5337 32.8691 95.5181 32.8898 95.4982 32.913C95.4626 32.9596 95.4322 33.0094 95.4108 33.0669C95.3614 33.1772 95.337 33.3034 95.3233 33.4319C95.3016 33.6893 95.3217 33.9572 95.3597 34.2252L95.3598 34.2238Z" fill="#1E1E1E"/>
<path d="M61.574 30.9919C60.3157 29.1849 57.8789 27.7357 56.6915 28.5617C55.5041 29.3878 56.0165 32.1772 57.2735 33.9843C58.0817 35.147 59.0017 35.6179 59.8714 35.5876C60.361 35.5697 60.8314 35.7735 61.1103 36.1755L66.9042 44.5007C67.1039 44.7863 67.4801 44.9143 67.7983 44.7734C68.2274 44.5826 68.3578 44.0647 68.1028 43.6986L62.2952 35.351C62.015 34.9491 61.9873 34.4367 62.1744 33.9848C62.5057 33.1801 62.3823 32.1546 61.574 30.9919Z" fill="white"/>
<path d="M57.1479 31.9253C57.2254 32.1283 57.3382 32.3165 57.4508 32.5021C57.5622 32.6878 57.6811 32.8703 57.8047 33.0471C58.0534 33.4006 58.3242 33.7379 58.6369 34.0284C58.7909 34.1764 58.9581 34.3103 59.1365 34.4222C59.3138 34.5369 59.5061 34.6267 59.7063 34.687C60.1099 34.8126 60.5541 34.7541 60.9528 34.575C60.7692 34.6953 60.5631 34.7821 60.3446 34.8321C60.1247 34.8795 59.8923 34.873 59.6719 34.8222C59.2273 34.721 58.8374 34.4632 58.5144 34.1592C58.1912 33.8526 57.9177 33.4999 57.6881 33.1238C57.5727 32.9358 57.4672 32.7417 57.3732 32.544C57.3268 32.4445 57.2842 32.3433 57.244 32.2407C57.2052 32.1379 57.1625 32.0354 57.1481 31.9266L57.1479 31.9253Z" fill="#1E1E1E"/>
<g filter="url(#filter3_d_250_7106)">
<path d="M65.9667 37.5244C66.4441 38.1045 67.1239 38.5185 67.8642 38.6545C68.2359 38.721 68.6529 38.7179 69.0306 38.6212C69.3992 38.5246 69.7829 38.2435 70.1788 38.3704C70.4084 38.443 70.5746 38.6424 70.7136 38.8388C70.7619 38.9053 70.8103 38.9808 70.8103 39.0624C70.8103 39.1984 70.6804 39.2981 70.5625 39.3646C69.931 39.7241 69.2028 39.8722 68.4897 40.0142C67.9216 40.129 67.3385 40.2438 66.7644 40.1653C66.5952 40.1411 66.429 40.1018 66.2779 40.0202C66.0482 39.8964 65.879 39.6848 65.7038 39.4854C65.4621 39.2074 65.1992 38.9446 64.9212 38.7028C64.7429 38.5487 64.5586 38.4007 64.4045 38.2224C63.9241 37.6725 63.7881 36.8868 63.8818 36.1617C63.9754 35.4365 64.2715 34.7566 64.5737 34.0949C64.616 34.0012 64.6613 33.9075 64.7308 33.835C65.175 33.3878 64.9665 34.7264 64.9726 34.9168C65.0028 35.8293 65.3623 36.7962 65.9636 37.5274L65.9667 37.5244Z" fill="white"/>
<path d="M74.5544 38.1923C74.8475 38.1621 75.1648 38.1168 75.4186 38.2618C75.6754 38.4068 75.7721 38.8359 75.5183 38.984C75.4276 39.0353 75.3219 39.0383 75.2192 39.0414C74.3882 39.0535 73.5573 38.9991 72.7263 38.9447C72.1824 38.9084 71.6355 38.8722 71.1188 38.6999C70.726 38.57 70.3604 38.3615 70.019 38.1258C69.5476 37.7995 69.1125 37.4157 68.7378 36.9837C68.62 36.8477 68.351 36.5818 68.6864 36.5183C68.8677 36.4851 69.2213 36.8356 69.3754 36.9323C70.3544 37.5457 71.4542 37.9687 72.5964 38.147C73.243 38.2467 73.9017 38.2678 74.5544 38.1983V38.1923Z" fill="white"/>
<path d="M83.2076 38.2977C83.3405 38.2675 83.8603 38.2584 83.9932 38.2856C84.102 38.3098 84.2954 38.4759 84.38 38.5454C84.7033 38.8023 84.5008 38.9836 84.7214 39.3341C84.2924 39.6332 83.7092 39.4912 83.1955 39.3824C81.6908 39.0621 80.1316 39.1286 78.5997 39.2676C77.9409 39.328 77.2581 39.4006 76.6265 39.1981C76.2065 39.0621 75.8168 38.7962 75.5388 38.4488C75.2457 38.0831 74.7531 37.7115 75.297 37.8323C78.8504 38.627 82.4613 38.4639 83.2076 38.2977Z" fill="white"/>
<path d="M83.3862 36.8866C83.5615 37.8958 84.3592 38.7238 85.3019 39.1256C86.2447 39.5275 87.3113 39.5487 88.3235 39.3946C89.363 39.2344 90.3782 38.896 91.2726 38.3461C91.611 38.1406 91.9404 37.8928 92.1459 37.5544C92.4027 37.1314 92.4329 36.6117 92.4601 36.1191C93.4693 36.5633 94.0948 37.7417 93.8984 38.8265C93.85 39.0984 93.7503 39.3674 93.5781 39.5879C93.2246 40.0382 92.6263 40.2074 92.0703 40.3464C91.1306 40.5851 90.1335 40.8238 89.2058 40.5397C88.8553 40.431 88.529 40.2527 88.1815 40.1349C87.4835 39.8961 86.7281 39.9022 85.9909 39.8327C85.7673 39.8115 85.5376 39.7813 85.3321 39.6907C84.8185 39.4641 84.5405 38.9171 84.3048 38.4095" fill="white"/>
<path d="M87.393 30.197C87.9097 30.1396 88.4415 30.0973 88.9401 30.2363C89.2664 30.3269 89.5655 30.4931 89.8465 30.6805C91.3513 31.6897 92.3182 33.3576 92.8077 35.1041C93.0313 33.6296 92.8802 32.1036 92.3726 30.7016C92.1188 30.0067 91.7532 29.3117 91.1368 28.9007C90.753 28.6469 90.2998 28.52 89.8496 28.4384C89.0126 28.2843 88.1363 28.2632 87.3205 28.5049C87.1211 28.5623 86.9246 28.6379 86.7554 28.7587C86.5772 28.8856 86.4321 29.0609 86.2569 29.1908C86.0454 29.3449 85.7915 29.4325 85.5559 29.5443C84.7793 29.913 84.2052 30.5445 83.6553 31.1821C84.8579 30.6382 86.0756 30.3451 87.393 30.197Z" fill="white"/>
<path d="M77.0073 30.7834C78.3187 28.9312 80.6574 27.9673 82.9266 27.9764C84.1111 27.9824 85.353 28.2574 86.2353 29.0521C86.2867 28.4447 85.8002 27.9341 85.3167 27.5654C84.6762 27.079 83.96 26.6741 83.1774 26.4867C82.3948 26.2994 81.5427 26.3447 80.8266 26.7133C80.4973 26.8826 80.2042 27.1182 79.9141 27.3479C79.5817 27.6138 79.2856 27.1605 78.9563 27.4234C78.6239 27.6893 78.0981 28.1063 77.8564 28.4568C77.6147 28.8103 76.956 29.9223 77.0798 30.3302" fill="white"/>
<path d="M72.0491 29.4081C73.3937 28.2901 75.0979 27.6979 76.8051 27.3262C77.6512 27.1419 78.5335 27.0059 79.3765 27.2023C78.9293 26.2868 77.9382 25.7338 76.935 25.5646C75.9319 25.3984 74.9045 25.5646 73.9044 25.764C73.4844 25.8486 73.0613 25.9423 72.6655 26.1115C72.2183 26.3049 71.8195 26.5889 71.4327 26.882C70.9583 27.2386 70.49 27.6072 70.1092 28.0605C69.4415 28.8582 69.0728 29.9127 69.1635 30.9491C69.2118 31.487 69.378 32.0067 69.5412 32.5234C69.659 32.889 69.7648 33.2576 69.8947 33.6172C70.0367 32.8195 70.0941 32.1003 70.4749 31.354C70.8737 30.5744 71.4357 30.0154 72.0461 29.4051L72.0491 29.4081Z" fill="white"/>
<path d="M70.5599 41.2645C69.8347 41.3159 69.0944 41.1769 68.3904 40.9744C67.6894 40.7599 67.0095 40.5151 66.3387 40.2009C65.6649 39.8957 65.0183 39.5029 64.426 38.9892C64.1329 38.7294 63.864 38.4302 63.6374 38.0828C63.4138 37.7353 63.2506 37.3364 63.1691 36.9194C62.9998 36.0794 63.1993 35.2122 63.586 34.5173C63.9849 33.8253 64.5106 33.2361 65.1301 32.7889C65.7404 32.3296 66.4173 31.9972 67.1274 31.7616C67.8344 31.544 68.6019 31.4231 69.318 31.5893C68.5959 31.6528 67.9341 31.8975 67.3207 32.2269C66.7074 32.5502 66.1363 32.9521 65.6407 33.4083C65.1512 33.8706 64.7222 34.3904 64.4502 34.9645C64.1752 35.5355 64.0604 36.1489 64.1783 36.723C64.281 37.3002 64.6255 37.8259 65.0908 38.2822C65.5501 38.7475 66.1242 39.1313 66.7164 39.4969C67.3117 39.8504 67.9462 40.1949 68.5747 40.5091C69.2032 40.8294 69.8589 41.0923 70.5629 41.2675L70.5599 41.2645Z" fill="white"/>
<path d="M70.2394 34.8291C69.7892 34.2037 69.3994 33.545 69.0821 32.8258C68.7709 32.1097 68.5413 31.318 68.5201 30.4599C68.4869 29.6078 68.7286 28.6892 69.2121 27.9338C69.6895 27.1754 70.3452 26.5983 71.0462 26.142C72.4603 25.2476 74.1222 24.8216 75.772 24.9545C76.5938 25.0301 77.4097 25.2476 78.1288 25.6858C78.4823 25.9094 78.7996 26.1813 79.0504 26.5076C79.3012 26.8309 79.4825 27.2056 79.5369 27.5894C79.0776 26.9669 78.434 26.6285 77.7813 26.4442C77.1287 26.272 76.4337 26.2327 75.7629 26.2901C74.4122 26.4049 73.0827 26.8672 71.9678 27.5743C71.4118 27.9278 70.9102 28.3508 70.5476 28.8403C70.182 29.3208 69.9463 29.8858 69.8557 30.5294C69.6562 31.8287 70.0098 33.3153 70.2454 34.8291H70.2394Z" fill="white"/>
<path d="M76.5728 31.9129C76.6423 30.7375 76.8508 29.55 77.4552 28.4381C77.7482 27.8912 78.1773 27.3654 78.694 26.9545C79.2107 26.5435 79.815 26.2474 80.4435 26.0691C81.7066 25.7156 83.0723 25.8637 84.2175 26.4196C84.7886 26.7067 85.3023 27.0632 85.7223 27.5558C86.1241 28.0422 86.4142 28.6677 86.3477 29.272C86.103 28.7281 85.7132 28.3414 85.266 28.0573C84.8279 27.7794 84.3142 27.5709 83.8187 27.4288C82.8185 27.1478 81.77 27.1327 80.8061 27.3956C80.3257 27.5255 79.8724 27.731 79.4615 28.003C79.0506 28.2779 78.691 28.6103 78.3526 29.0303C77.6757 29.8492 77.1802 30.8916 76.5698 31.9099L76.5728 31.9129Z" fill="white"/>
<path d="M83.341 35.8376C83.2352 36.6323 83.5525 37.3666 84.0269 37.9316C84.4983 38.5087 85.1177 38.9529 85.7704 39.3095C86.4321 39.6539 87.1361 39.9289 87.8643 40.077C88.5895 40.2431 89.3328 40.2975 90.061 40.2341C90.7923 40.1797 91.5023 39.9833 92.152 39.666C92.4753 39.5119 92.7986 39.3064 93.0645 39.0919C93.3183 38.8744 93.5298 38.6205 93.6144 38.3244C93.7081 38.0313 93.6718 37.705 93.548 37.3877C93.4211 37.0705 93.1975 36.7774 92.9346 36.5175C92.4028 35.9948 91.7048 35.6231 90.9675 35.3481C91.7531 35.4358 92.5387 35.6987 93.2156 36.1882C93.551 36.4329 93.8531 36.7471 94.0737 37.1369C94.2943 37.5237 94.394 38.0162 94.2913 38.4906C94.1946 38.965 93.9166 39.3759 93.5903 39.6781C93.2579 39.9742 92.9255 40.2069 92.5508 40.4154C91.8105 40.8293 90.9766 41.0529 90.1426 41.1345C88.4686 41.2675 86.7886 40.8203 85.4078 39.9229C84.7188 39.4726 84.0964 38.8985 83.6613 38.1915C83.4498 37.8349 83.2866 37.4451 83.2231 37.0342C83.1567 36.6263 83.1959 36.2063 83.344 35.8376H83.341Z" fill="white"/>
<path d="M68.1124 35.2549C68.2121 35.5631 68.3239 35.8622 68.472 36.1372C68.6321 36.4091 68.7983 36.669 69.0098 36.8926C69.4177 37.3489 69.9193 37.6903 70.4541 37.9441L70.8621 38.1194L71.2881 38.2523L71.4996 38.3188L71.7202 38.3641L72.1553 38.4517C72.4514 38.494 72.7506 38.5212 73.0437 38.5515L73.9441 38.5726L73.7416 40.3735L72.7415 40.1076C72.4121 39.9928 72.0858 39.881 71.7655 39.7541L71.2911 39.5335L71.0585 39.4247L70.8318 39.2917L70.3877 39.0228L69.9677 38.7086C69.4268 38.2735 68.9584 37.7477 68.6382 37.1494C68.4689 36.8563 68.3571 36.536 68.2605 36.2218C68.1759 35.9015 68.1366 35.5752 68.1094 35.2549H68.1124Z" fill="white"/>
<path d="M74.5688 36.7144C74.7532 37.1525 75.0463 37.509 75.3968 37.7749C75.7473 38.0408 76.1491 38.2161 76.5631 38.337C76.974 38.4669 77.4092 38.5213 77.8382 38.5636C78.0588 38.5726 78.2733 38.5847 78.4939 38.5877L79.1496 38.5726L78.9381 40.3735L78.2129 40.1499C77.9712 40.0653 77.7355 39.9686 77.4998 39.881C77.0315 39.6725 76.5722 39.4489 76.1552 39.1467C75.7382 38.8536 75.3484 38.5031 75.0644 38.0831C74.7773 37.6662 74.6021 37.1827 74.5688 36.7144Z" fill="white"/>
<path d="M89.1909 45.5613C88.7467 45.5976 88.1514 45.5915 87.5713 45.5009C87.109 45.4556 86.6618 45.383 86.2116 45.2984C85.7613 45.2229 85.3142 45.1353 84.8639 45.0537L83.5103 44.8422C81.7033 44.5823 79.8783 44.392 78.0442 44.3315C76.2101 44.265 74.3669 44.3073 72.5358 44.4917C70.7077 44.685 68.8706 44.963 67.1301 45.5945L66.8461 45.6973L66.7645 45.377L65.5257 40.5545L65.4683 40.3279L65.7432 40.1859C66.2146 39.9442 66.7132 39.778 67.2117 39.639C67.7163 39.5181 68.23 39.4275 68.7407 39.3217L70.2787 39.0618L71.8227 38.8503C73.8864 38.5995 75.9683 38.5089 78.0442 38.5331C80.12 38.5633 82.1928 38.7325 84.2475 39.0135L85.7825 39.2492L87.3084 39.5332L88.8283 39.8565C89.3329 39.9744 89.8375 40.0862 90.3481 40.1859L90.6443 40.2433L90.5657 40.5515C90.1397 42.2285 89.6653 43.9176 89.1878 45.5583L89.1909 45.5613ZM88.8827 45.0416C89.2332 43.4673 89.5837 41.9414 89.9825 40.4034L90.2001 40.7721C89.7076 40.6331 89.212 40.5031 88.7135 40.3793C88.2119 40.2735 87.7103 40.1708 87.2087 40.0741L85.6919 39.8293L84.169 39.6299C82.1354 39.3942 80.0868 39.3036 78.0442 39.3338C76.0016 39.358 73.962 39.5272 71.9405 39.79L70.4267 40.0136L68.922 40.2856C68.4234 40.3883 67.9278 40.5062 67.4232 40.5938C66.9247 40.6935 66.417 40.769 65.8883 40.766L66.1058 40.3974L67.3447 45.2199L66.976 45.0023C68.8222 44.7122 70.6292 44.2953 72.4723 44.0233C74.3125 43.7453 76.1708 43.555 78.0412 43.4885C79.9085 43.4281 81.7879 43.4704 83.6523 43.6758L85.0483 43.8571C85.5106 43.9357 85.9759 44.0022 86.4352 44.0898C86.8914 44.1925 87.3507 44.3073 87.7949 44.4494C88.1152 44.5732 88.4204 44.7848 88.8766 45.0356L88.8827 45.0416Z" fill="white"/>
<path d="M66.0328 41.7722C66.8607 41.5486 67.6282 41.4278 68.4289 41.3311C69.2206 41.2404 70.0153 41.186 70.8069 41.18C71.5986 41.177 72.3872 41.1951 73.1698 41.2706C73.9524 41.3311 74.729 41.4519 75.4995 41.5819C74.7169 41.5517 73.9403 41.5335 73.1638 41.5758C72.3872 41.603 71.6167 41.6876 70.8523 41.7904C70.0878 41.8991 69.3324 42.0502 68.5921 42.2345C67.8579 42.4189 67.1025 42.6485 66.4498 42.9204L66.0298 41.7722H66.0328Z" fill="white"/>
<path d="M79.7271 42.9086C79.7271 42.9086 85.74 42.4553 89.2209 44.0115L79.7271 42.9086Z" fill="#1E1E1E"/>
<path d="M79.7271 42.9089C80.5248 42.8182 81.3315 42.7669 82.1353 42.7367C82.942 42.7095 83.7488 42.7034 84.5586 42.7397C85.3684 42.779 86.1812 42.8424 86.991 42.9723C87.8008 43.1083 88.6106 43.2926 89.4052 43.5948L89.0366 44.4227C88.3567 44.0873 87.6134 43.8395 86.855 43.6371C86.0936 43.4377 85.308 43.3047 84.5193 43.1899C83.7307 43.0781 82.933 43.0116 82.1322 42.9603C81.3315 42.9149 80.5308 42.8908 79.7271 42.9059V42.9089Z" fill="white"/>
<path d="M92.3574 32.7167C92.5538 33.738 92.5508 34.8227 92.5749 35.9196L92.871 36.2036C92.9405 35.8229 93.004 35.4391 93.0614 35.0524C93.1672 34.2577 93.2336 33.4388 93.1551 32.6049C93.0826 31.777 92.8741 30.9339 92.442 30.1634C92.2274 29.7797 91.9525 29.4201 91.6231 29.1119C91.2907 28.8067 90.91 28.5559 90.5021 28.3686C88.8614 27.6192 86.9215 27.9154 85.5195 28.843C84.8034 29.2872 84.2021 29.8673 83.6763 30.4898C83.1596 31.1213 82.7215 31.7981 82.3589 32.5142C83.4376 31.3388 84.5707 30.2178 85.9153 29.541C86.2507 29.3748 86.5982 29.2358 86.9427 29.1331C87.2901 29.0334 87.6497 28.9729 88.0093 28.9518C88.7254 28.9064 89.4476 29.0152 90.0761 29.3083C90.7076 29.5923 91.2333 30.0577 91.602 30.662C91.9827 31.2603 92.2093 31.9794 92.3604 32.7167H92.3574Z" fill="white"/>
<g style="mix-blend-mode:multiply">
<path d="M88.8489 41.2074C89.0181 41.4914 89.139 41.8389 89.0211 42.1471C88.9123 42.4372 88.6162 42.6215 88.311 42.688C88.0089 42.7514 87.6946 42.7152 87.3864 42.685C85.4949 42.4916 83.5822 42.5248 81.6998 42.7756C83.5701 43.2923 85.6792 42.975 87.3623 43.9359C86.3379 44.3529 85.1837 44.0477 84.0929 43.8755C82.7875 43.667 81.4611 43.6549 80.1406 43.6428C80.2041 43.7546 80.331 43.812 80.4488 43.8574C83.2136 44.93 86.3319 44.6097 89.1843 45.4165C89.0362 43.7999 90.1875 42.3224 90.263 40.6998C90.263 40.6393 90.266 40.5759 90.2358 40.5215C90.2086 40.4732 90.1572 40.4399 90.1089 40.4127C89.7252 40.1831 89.3051 40.0139 88.87 39.9081C88.5497 39.8296 87.8125 39.6271 87.5043 39.7842C87.0601 40.0078 87.7551 40.1801 87.9696 40.316C88.3261 40.5396 88.6313 40.8478 88.8489 41.2074Z" fill="white"/>
</g>
<g style="mix-blend-mode:multiply">
<path d="M69.6169 40.5637C69.5081 40.9717 70.892 40.6755 71.0128 40.6695C71.9677 40.6363 72.2819 41.0412 72.8409 41.3917C71.6262 41.1771 70.336 41.4068 69.2694 42.0292C69.0639 42.1501 68.8887 42.3193 68.7859 42.5369C68.7527 42.6063 68.7285 42.6849 68.7466 42.7604C68.7678 42.8451 68.8433 42.9025 68.9128 42.9538C69.3268 43.2439 69.7982 43.4584 70.2907 43.5702C70.6503 43.6518 71.0219 43.682 71.3905 43.7092C72.2336 43.7727 73.0796 43.8392 73.9227 43.9026C71.6806 44.0658 69.4628 44.5311 67.3476 45.2865C67.2993 45.3046 67.2419 45.3197 67.1966 45.2926C67.1633 45.2714 67.1482 45.2291 67.1392 45.1898C66.7524 43.8482 66.3656 42.5036 65.9789 41.162C65.9063 40.9082 65.8399 40.6121 65.997 40.4006C66.1239 40.2283 66.3566 40.174 66.5711 40.1377C67.2147 40.0289 67.8613 39.9443 68.511 39.8929C69.0639 39.8476 69.6229 39.8235 70.1577 39.6663C70.4841 39.5727 70.7923 39.4306 71.1156 39.3279C71.9193 39.065 72.8409 39.0469 73.6477 39.3037C73.1793 39.4548 69.7136 40.1981 69.6169 40.5607V40.5637Z" fill="white"/>
</g>
</g>
<g clip-path="url(#clip1_250_7106)">
<path fill-rule="evenodd" clip-rule="evenodd" d="M78.5502 86.12C78.5944 86.0205 78.693 85.9565 78.8018 85.9565C78.9107 85.9565 79.0093 86.0205 79.0535 86.12L80.241 88.7915C80.274 88.866 80.3443 88.917 80.4254 88.9254L83.333 89.2292C83.4412 89.2406 83.5327 89.3146 83.5662 89.4182C83.5999 89.5216 83.5694 89.6352 83.4886 89.7081L81.3148 91.6627C81.2543 91.7174 81.2274 91.8 81.2443 91.8795L81.8538 94.7389C81.8766 94.8452 81.8345 94.955 81.7464 95.019C81.6585 95.0829 81.541 95.0891 81.4467 95.0347L78.9159 93.5714C78.8453 93.5306 78.7583 93.5306 78.6878 93.5714L76.157 95.0347C76.0627 95.0891 75.9452 95.0829 75.8573 95.019C75.7692 94.955 75.7271 94.8452 75.7498 94.7389L76.3594 91.8795C76.3763 91.8 76.3494 91.7174 76.2888 91.6627L74.1151 89.7081C74.0343 89.6352 74.0038 89.5216 74.0375 89.4182C74.0709 89.3146 74.1625 89.2406 74.2706 89.2292L77.1783 88.9254C77.2593 88.917 77.3297 88.866 77.3627 88.7915L78.5502 86.12Z" fill="white"/>
</g>
<g clip-path="url(#clip2_250_7106)">
<path fill-rule="evenodd" clip-rule="evenodd" d="M66.0312 91.916C66.0665 91.8363 66.1454 91.7852 66.2325 91.7852C66.3196 91.7852 66.3984 91.8363 66.4338 91.916L67.3838 94.0532C67.4102 94.1127 67.4665 94.1535 67.5313 94.1603L69.8575 94.4033C69.944 94.4124 70.0172 94.4716 70.044 94.5545C70.071 94.6372 70.0465 94.7281 69.9819 94.7864L68.2429 96.3501C68.1944 96.3938 68.1729 96.46 68.1864 96.5235L68.6741 98.811C68.6923 98.8961 68.6586 98.9839 68.5881 99.0351C68.5178 99.0863 68.4238 99.0912 68.3484 99.0477L66.3238 97.877C66.2673 97.8444 66.1977 97.8444 66.1412 97.877L64.1166 99.0477C64.0412 99.0912 63.9472 99.0863 63.8769 99.0351C63.8064 98.9839 63.7727 98.8961 63.7909 98.811L64.2785 96.5235C64.292 96.46 64.2705 96.3938 64.2221 96.3501L62.4831 94.7864C62.4184 94.7281 62.394 94.6372 62.421 94.5545C62.4478 94.4716 62.521 94.4124 62.6075 94.4033L64.9336 94.1603C64.9985 94.1535 65.0548 94.1127 65.0812 94.0532L66.0312 91.916Z" fill="white"/>
</g>
<g clip-path="url(#clip3_250_7106)">
<path fill-rule="evenodd" clip-rule="evenodd" d="M91.1703 91.916C91.2057 91.8363 91.2846 91.7852 91.3716 91.7852C91.4587 91.7852 91.5376 91.8363 91.5729 91.916L92.5229 94.0532C92.5494 94.1127 92.6057 94.1535 92.6705 94.1603L94.9966 94.4033C95.0831 94.4124 95.1564 94.4716 95.1832 94.5545C95.2101 94.6372 95.1857 94.7281 95.121 94.7864L93.3821 96.3501C93.3336 96.3938 93.3121 96.46 93.3256 96.5235L93.8132 98.811C93.8315 98.8961 93.7978 98.9839 93.7273 99.0351C93.6569 99.0863 93.5629 99.0912 93.4875 99.0477L91.4629 97.877C91.4064 97.8444 91.3368 97.8444 91.2804 97.877L89.2558 99.0477C89.1803 99.0912 89.0863 99.0863 89.016 99.0351C88.9455 98.9839 88.9118 98.8961 88.93 98.811L89.4177 96.5235C89.4312 96.46 89.4097 96.3938 89.3612 96.3501L87.6223 94.7864C87.5576 94.7281 87.5332 94.6372 87.5601 94.5545C87.5869 94.4716 87.6601 94.4124 87.7467 94.4033L90.0728 94.1603C90.1376 94.1535 90.1939 94.1127 90.2203 94.0532L91.1703 91.916Z" fill="white"/>
</g>
</g>
<defs>
<filter id="filter0_d_250_7106" x="28.9399" y="46.2012" width="94.4663" height="23.5507" filterUnits="userSpaceOnUse" color-interpolation-filters="sRGB">
<feFlood flood-opacity="0" result="BackgroundImageFix"/>
<feColorMatrix in="SourceAlpha" type="matrix" values="0 0 0 0 0 0 0 0 0 0 0 0 0 0 0 0 0 0 127 0" result="hardAlpha"/>
<feOffset dx="0.576923" dy="0.865385"/>
<feGaussianBlur stdDeviation="0.288462"/>
<feComposite in2="hardAlpha" operator="out"/>
<feColorMatrix type="matrix" values="0 0 0 0 0.558333 0 0 0 0 0.137257 0 0 0 0 0.137257 0 0 0 1 0"/>
<feBlend mode="normal" in2="BackgroundImageFix" result="effect1_dropShadow_250_7106"/>
<feBlend mode="normal" in="SourceGraphic" in2="effect1_dropShadow_250_7106" result="shape"/>
</filter>
<filter id="filter1_d_250_7106" x="122.251" y="53.2217" width="21.7925" height="23.3676" filterUnits="userSpaceOnUse" color-interpolation-filters="sRGB">
<feFlood flood-opacity="0" result="BackgroundImageFix"/>
<feColorMatrix in="SourceAlpha" type="matrix" values="0 0 0 0 0 0 0 0 0 0 0 0 0 0 0 0 0 0 127 0" result="hardAlpha"/>
<feOffset dx="0.576923" dy="0.865385"/>
<feGaussianBlur stdDeviation="0.288462"/>
<feComposite in2="hardAlpha" operator="out"/>
<feColorMatrix type="matrix" values="0 0 0 0 0.558333 0 0 0 0 0.137257 0 0 0 0 0.137257 0 0 0 1 0"/>
<feBlend mode="normal" in2="BackgroundImageFix" result="effect1_dropShadow_250_7106"/>
<feBlend mode="normal" in="SourceGraphic" in2="effect1_dropShadow_250_7106" result="shape"/>
</filter>
<filter id="filter2_d_250_7106" x="0.109863" y="63.8413" width="138.006" height="21.0058" filterUnits="userSpaceOnUse" color-interpolation-filters="sRGB">
<feFlood flood-opacity="0" result="BackgroundImageFix"/>
<feColorMatrix in="SourceAlpha" type="matrix" values="0 0 0 0 0 0 0 0 0 0 0 0 0 0 0 0 0 0 127 0" result="hardAlpha"/>
<feOffset dx="0.576923" dy="0.865385"/>
<feGaussianBlur stdDeviation="0.288462"/>
<feComposite in2="hardAlpha" operator="out"/>
<feColorMatrix type="matrix" values="0 0 0 0 0.558333 0 0 0 0 0.137257 0 0 0 0 0.137257 0 0 0 1 0"/>
<feBlend mode="normal" in2="BackgroundImageFix" result="effect1_dropShadow_250_7106"/>
<feBlend mode="normal" in="SourceGraphic" in2="effect1_dropShadow_250_7106" result="shape"/>
</filter>
<filter id="filter3_d_250_7106" x="62.8199" y="24.9307" width="32.9544" height="22.4974" filterUnits="userSpaceOnUse" color-interpolation-filters="sRGB">
<feFlood flood-opacity="0" result="BackgroundImageFix"/>
<feColorMatrix in="SourceAlpha" type="matrix" values="0 0 0 0 0 0 0 0 0 0 0 0 0 0 0 0 0 0 127 0" result="hardAlpha"/>
<feOffset dx="0.576923" dy="0.865385"/>
<feGaussianBlur stdDeviation="0.432692"/>
<feComposite in2="hardAlpha" operator="out"/>
<feColorMatrix type="matrix" values="0 0 0 0 0 0 0 0 0 0 0 0 0 0 0 0 0 0 0.25 0"/>
<feBlend mode="normal" in2="BackgroundImageFix" result="effect1_dropShadow_250_7106"/>
<feBlend mode="normal" in="SourceGraphic" in2="effect1_dropShadow_250_7106" result="shape"/>
</filter>
<clipPath id="clip0_250_7106">
<rect width="145" height="122" fill="white"/>
</clipPath>
<clipPath id="clip1_250_7106">
<rect width="10.9301" height="10.9301" fill="white" transform="translate(73.3408 85.0459)"/>
</clipPath>
<clipPath id="clip2_250_7106">
<rect width="8.74408" height="8.74408" fill="white" transform="translate(61.8643 91.0566)"/>
</clipPath>
<clipPath id="clip3_250_7106">
<rect width="8.74408" height="8.74408" fill="white" transform="translate(87.0034 91.0566)"/>
</clipPath>
</defs>
</svg>
