<svg xmlns="http://www.w3.org/2000/svg" version="1.1" xmlns:xlink="http://www.w3.org/1999/xlink" width="1000" height="1000"><g clip-path="url(#SvgjsClipPath1104)"><rect width="1000" height="1000" fill="#f6f5f5"></rect><g transform="matrix(8.333333333333334,0,0,8.333333333333334,-5.684341886080802e-14,-5.684341886080802e-14)"><svg xmlns="http://www.w3.org/2000/svg" version="1.1" xmlns:xlink="http://www.w3.org/1999/xlink" width="120" height="120"><svg width="120" height="120" viewBox="0 0 120 120" fill="none" xmlns="http://www.w3.org/2000/svg">
<path d="M98.1406 75.7185C92.3474 89.4875 78.549 99.1764 62.4453 99.1765C46.3415 99.1765 32.5422 89.4877 26.749 75.7185H30.1377C35.7368 87.7569 48.0966 96.1218 62.4453 96.1218C76.7939 96.1218 89.1528 87.7567 94.752 75.7185H98.1406ZM62.4453 23.282C79.3447 23.2821 93.7061 33.9521 98.9404 48.8103H95.6328C90.5393 35.6718 77.6026 26.3367 62.4453 26.3367C47.288 26.3367 34.3514 35.6718 29.2578 48.8103H25.9492C31.1835 33.9519 45.5458 23.282 62.4453 23.282Z" fill="#262724"></path>
<path d="M91.2903 75.719C85.9148 86.0851 74.9524 93.1847 62.302 93.1848C49.6516 93.1848 38.6893 86.085 33.3137 75.719H34.7893C40.0526 85.3509 50.3984 91.9006 62.302 91.9006C74.2054 91.9005 84.5504 85.3507 89.8137 75.719H91.2903ZM62.302 29.2737C75.7783 29.2738 87.3393 37.331 92.2708 48.8108H90.845C85.9943 38.0589 75.0403 30.558 62.302 30.5579C49.5635 30.5579 38.6088 38.0588 33.7581 48.8108H32.3333C37.2648 37.331 48.8256 29.2737 62.302 29.2737Z" fill="#0A0806"></path>
<g filter="url(#filter0_d_222_9139)">
<path d="M43.5623 65.6165V57.6996C43.5623 56.9696 43.6011 56.0516 43.6787 54.9455H43.6071C43.428 55.7821 43.2848 56.3408 43.1774 56.6215L39.7574 65.6165H37.4029L33.9382 56.7057C33.8546 56.4924 33.7084 55.9056 33.4995 54.9455H33.4189C33.4965 56.0404 33.5353 57.1381 33.5353 58.2386V65.6165H30.8674V52.5704H35.1647L38.1549 60.4536C38.4056 61.105 38.5757 61.717 38.6652 62.2897H38.7279C38.9129 61.5766 39.1039 60.959 39.3009 60.4368L42.3 52.5704H46.4809V65.6165H43.5623Z" fill="#BB3E3E"></path>
<path d="M60.1592 65.6165H57.2854V64.1931H57.2406C56.5005 65.2937 55.4888 65.8439 54.2056 65.8439C51.9018 65.8439 50.7499 64.5356 50.7499 61.9191V56.3015H53.6416V61.6665C53.6416 63.0589 54.2206 63.7552 55.3784 63.7552C55.9574 63.7552 56.4199 63.5643 56.7661 63.1825C57.1123 62.8007 57.2854 62.2841 57.2854 61.6328V56.3015H60.1592V65.6165Z" fill="#BB3E3E"></path>
<path d="M73.6673 65.6165H70.7935V60.42C70.7935 58.9152 70.2176 58.1628 69.0656 58.1628C68.5165 58.1628 68.06 58.3649 67.6959 58.7692C67.3318 59.1678 67.1498 59.6788 67.1498 60.302V65.6165H64.2581V56.3015H67.1498V57.7838H67.1856C67.9078 56.644 68.9701 56.0741 70.3727 56.0741C72.5691 56.0741 73.6673 57.3542 73.6673 59.9146V65.6165Z" fill="#BB3E3E"></path>
<path d="M83.4422 65.507C83.0065 65.7316 82.347 65.8439 81.4637 65.8439C79.3628 65.8439 78.3123 64.8052 78.3123 62.7277V58.3312H76.6829V56.3015H78.3123V54.2548L81.1861 53.48V56.3015H83.4422V58.3312H81.1861V62.256C81.1861 63.2498 81.6039 63.7468 82.4395 63.7468C82.7618 63.7468 83.096 63.6569 83.4422 63.4772V65.507Z" fill="#BB3E3E"></path>
<path d="M86.4131 53.2947C86.4131 52.8792 86.5682 52.5423 86.8786 52.284C87.1949 52.0201 87.5978 51.8882 88.0872 51.8882C88.5886 51.8882 88.9944 52.0229 89.3048 52.2925C89.6151 52.5564 89.7703 52.8904 89.7703 53.2947C89.7703 53.7046 89.6122 54.0471 89.2958 54.3222C88.9795 54.5917 88.5766 54.7265 88.0872 54.7265C87.6038 54.7265 87.2039 54.5889 86.8876 54.3138C86.5712 54.0387 86.4131 53.699 86.4131 53.2947ZM86.6279 65.6165V56.3015H89.5107V65.6165H86.6279Z" fill="#BB3E3E"></path>
</g>
<g filter="url(#filter1_d_222_9139)">
<path d="M99.0201 56.3792H96.179L96.044 64.6957C96.044 68.7281 91.7755 68.3189 89.7703 67.2075V69.5491C96.9065 71.6775 98.9103 67.74 99.0201 65.5052V63.3391V56.3792Z" fill="#BB3E3E"></path>
<path d="M102.798 58.3402V56.3198H92.2632V58.3402H102.798Z" fill="#BB3E3E"></path>
</g>
<g filter="url(#filter2_d_222_9139)">
<path d="M63.9154 73.8003C60.3442 73.2304 21.4183 68.7433 13.2046 75.3009C12.4904 75.646 12.4904 74.6684 13.2046 74.1455C24.9895 65.5171 65.701 74.4906 84.6283 72.7649C98.4989 71.5003 96.4132 64.4816 97.1274 63.4462C97.6988 62.6179 98.9012 63.0942 99.0089 64.124C99.3076 66.9823 99.2701 79.4426 63.9154 73.8003Z" fill="#BB3E3E"></path>
</g>
<path d="M99.0822 70.3983C97.9421 72.6908 95.0446 73.9803 93.7383 74.3385C96.5883 74.3385 99.7947 71.4729 100.863 70.0401C101.932 68.6073 102.645 65.3835 101.22 65.7417C99.7947 66.0999 100.507 67.5327 99.0822 70.3983Z" fill="#0A0806"></path>
<path d="M25.4622 68.2655C20.9474 68.5245 17.4481 70.0754 16.1875 70.8604C16.1435 70.8878 16.1187 70.9353 16.1187 70.9871C16.1187 71.1004 16.2386 71.1738 16.3404 71.1242C20.2056 69.2427 23.6923 68.9251 25.1028 68.9251H25.1029C26.5849 68.9251 33.3682 68.9251 33.0088 68.5953C32.6495 68.2655 31.212 67.9357 25.4622 68.2655Z" fill="#0A0806"></path>
<path d="M76.3117 41.1217L74.9274 43.1104L74.7251 42.9697L76.1094 40.9809C76.1659 40.8995 76.1458 40.7873 76.0644 40.7308C75.983 40.6743 75.8708 40.6944 75.8143 40.7758L74.4299 42.7645L74.2277 42.6238L75.612 40.6351C75.6685 40.5536 75.6484 40.4414 75.567 40.3849C75.4856 40.3284 75.3733 40.3485 75.3168 40.4299L73.9325 42.4187L73.7302 42.2779L75.1146 40.2892C75.1711 40.2078 75.151 40.0955 75.0696 40.039L75.0326 40.0132C74.9512 39.9567 74.8389 39.9768 74.7824 40.0582L72.4903 43.3518C72.308 43.6132 72.2522 43.9236 72.3077 44.2139C72.3597 44.4846 72.3055 44.7656 72.1479 44.9917L68.3414 50.4641C68.2087 50.654 68.2159 50.9183 68.3786 51.0844C68.5965 51.3075 68.9497 51.2694 69.119 51.0269L72.9373 45.5398C73.0949 45.3129 73.3389 45.1655 73.6118 45.1198C73.9032 45.0713 74.1744 44.9106 74.3567 44.6492L76.6488 41.3556C76.7053 41.2742 76.6852 41.162 76.6038 41.1055L76.5627 41.0767C76.4813 41.0202 76.3691 41.0403 76.3126 41.1217L76.3117 41.1217Z" fill="#2D2824"></path>
<path d="M72.795 44.3275C72.7238 44.1708 72.6835 43.9994 72.6802 43.8224C72.6781 43.7335 72.6918 43.6432 72.7237 43.5545C72.7308 43.5325 72.7396 43.5106 72.7527 43.4899C72.7649 43.4692 72.7746 43.4474 72.7909 43.4296C72.8054 43.4117 72.822 43.3904 72.8364 43.3751L72.8785 43.3299C72.9924 43.2081 73.1 43.0779 73.2119 42.9498C73.322 42.8216 73.4338 42.6926 73.5514 42.5685C73.4732 42.7212 73.3818 42.8658 73.2846 43.0065C73.1873 43.1471 73.0819 43.2818 72.9649 43.4104L72.9191 43.457C72.9048 43.4723 72.895 43.4854 72.8824 43.5C72.8599 43.5294 72.8407 43.5609 72.8272 43.5972C72.796 43.6668 72.7806 43.7465 72.772 43.8276C72.7583 43.9901 72.771 44.1592 72.7949 44.3283L72.795 44.3275Z" fill="white"></path>
<path d="M51.4683 42.2872C50.6741 41.1465 49.1358 40.2317 48.3863 40.7531C47.6368 41.2746 47.9602 43.0354 48.7537 44.1761C49.2639 44.9101 49.8446 45.2073 50.3935 45.1882C50.7026 45.1769 50.9995 45.3055 51.1756 45.5593L54.833 50.8145C54.959 50.9948 55.1965 51.0756 55.3973 50.9867C55.6682 50.8662 55.7505 50.5393 55.5896 50.3082L51.9236 45.0388C51.7467 44.7851 51.7292 44.4617 51.8473 44.1764C52.0565 43.6685 51.9785 43.0211 51.4683 42.2872Z" fill="#2D2824"></path>
<path d="M48.6743 42.8767C48.7232 43.0048 48.7944 43.1237 48.8655 43.2408C48.9358 43.3581 49.0108 43.4732 49.0889 43.5849C49.2459 43.808 49.4168 44.0209 49.6142 44.2043C49.7114 44.2977 49.8169 44.3822 49.9296 44.4529C50.0415 44.5252 50.1629 44.5819 50.2893 44.62C50.544 44.6993 50.8244 44.6624 51.0761 44.5493C50.9602 44.6252 50.8301 44.6801 50.6922 44.7116C50.5534 44.7415 50.4067 44.7374 50.2676 44.7054C49.9869 44.6415 49.7408 44.4788 49.5369 44.2869C49.3328 44.0933 49.1602 43.8707 49.0153 43.6332C48.9424 43.5146 48.8758 43.3921 48.8165 43.2673C48.7872 43.2045 48.7603 43.1406 48.735 43.0758C48.7105 43.0109 48.6835 42.9462 48.6744 42.8775L48.6743 42.8767Z" fill="white"></path>
<g filter="url(#filter3_d_222_9139)">
<path d="M54.2406 46.4107C54.5419 46.7769 54.9711 47.0382 55.4384 47.124C55.673 47.166 55.9362 47.1641 56.1746 47.103C56.4073 47.042 56.6496 46.8646 56.8994 46.9447C57.0444 46.9905 57.1493 47.1164 57.237 47.2404C57.2676 47.2823 57.2981 47.33 57.2981 47.3815C57.2981 47.4674 57.2161 47.5303 57.1417 47.5723C56.743 47.7992 56.2834 47.8927 55.8332 47.9823C55.4746 48.0548 55.1065 48.1273 54.7441 48.0777C54.6373 48.0624 54.5324 48.0377 54.437 47.9862C54.2921 47.908 54.1853 47.7744 54.0746 47.6486C53.922 47.4731 53.7561 47.3071 53.5806 47.1545C53.4681 47.0573 53.3517 46.9638 53.2545 46.8513C52.9512 46.5041 52.8654 46.0082 52.9245 45.5505C52.9836 45.0927 53.1705 44.6635 53.3613 44.2458C53.388 44.1867 53.4166 44.1276 53.4605 44.0818C53.7409 43.7995 53.6092 44.6445 53.6131 44.7646C53.6321 45.3406 53.8591 45.951 54.2387 46.4126L54.2406 46.4107Z" fill="#E6E7EB"></path>
<path d="M59.6614 46.8322C59.8464 46.8132 60.0467 46.7846 60.2069 46.8761C60.3691 46.9677 60.4301 47.2385 60.2699 47.332C60.2127 47.3644 60.1459 47.3663 60.081 47.3682C59.5565 47.3758 59.032 47.3415 58.5075 47.3072C58.1641 47.2843 57.8189 47.2614 57.4928 47.1527C57.2448 47.0707 57.014 46.9391 56.7985 46.7903C56.5009 46.5843 56.2263 46.3421 55.9898 46.0693C55.9154 45.9835 55.7456 45.8156 55.9573 45.7756C56.0718 45.7546 56.2949 45.9758 56.3922 46.0369C57.0102 46.4241 57.7045 46.6911 58.4255 46.8036C58.8336 46.8666 59.2494 46.8799 59.6614 46.8361V46.8322Z" fill="#E6E7EB"></path>
<path d="M65.124 46.899C65.2079 46.8799 65.536 46.8742 65.6199 46.8914C65.6886 46.9066 65.8107 47.0115 65.8641 47.0554C66.0682 47.2175 65.9404 47.332 66.0796 47.5532C65.8088 47.742 65.4406 47.6524 65.1164 47.5837C64.1665 47.3816 63.1823 47.4235 62.2153 47.5113C61.7995 47.5494 61.3684 47.5952 60.9698 47.4674C60.7046 47.3816 60.4586 47.2137 60.2831 46.9944C60.0981 46.7636 59.7872 46.529 60.1305 46.6053C62.3736 47.1069 64.6529 47.0039 65.124 46.899Z" fill="#E6E7EB"></path>
<path d="M65.2368 46.0082C65.3474 46.6452 65.851 47.1678 66.4461 47.4215C67.0412 47.6752 67.7145 47.6885 68.3534 47.5913C69.0096 47.4902 69.6505 47.2765 70.215 46.9294C70.4287 46.7997 70.6366 46.6433 70.7663 46.4297C70.9284 46.1626 70.9475 45.8346 70.9646 45.5237C71.6017 45.8041 71.9965 46.5479 71.8725 47.2327C71.842 47.4043 71.7791 47.5741 71.6704 47.7133C71.4472 47.9975 71.0695 48.1043 70.7186 48.1921C70.1254 48.3428 69.496 48.4934 68.9104 48.3142C68.6891 48.2455 68.4831 48.133 68.2638 48.0586C67.8232 47.9079 67.3464 47.9117 66.881 47.8678C66.7398 47.8545 66.5949 47.8354 66.4652 47.7782C66.1409 47.6351 65.9654 47.2899 65.8167 46.9695" fill="#E6E7EB"></path>
<path d="M67.7659 41.7854C68.0921 41.7492 68.4278 41.7225 68.7425 41.8102C68.9485 41.8674 69.1373 41.9723 69.3147 42.0906C70.2645 42.7276 70.8749 43.7805 71.1839 44.883C71.325 43.9522 71.2297 42.989 70.9092 42.1039C70.749 41.6652 70.5182 41.2266 70.1291 40.9671C69.8869 40.8069 69.6008 40.7268 69.3166 40.6753C68.7882 40.578 68.2351 40.5647 67.7201 40.7173C67.5942 40.7535 67.4703 40.8012 67.3634 40.8775C67.2509 40.9576 67.1594 41.0682 67.0487 41.1503C66.9152 41.2475 66.755 41.3028 66.6062 41.3734C66.116 41.6061 65.7536 42.0048 65.4065 42.4072C66.1656 42.0639 66.9343 41.8789 67.7659 41.7854Z" fill="#E6E7EB"></path>
<path d="M61.21 42.1553C62.0378 40.9861 63.5141 40.3777 64.9465 40.3834C65.6942 40.3872 66.4781 40.5608 67.035 41.0624C67.0675 40.679 66.7604 40.3567 66.4552 40.124C66.0508 39.8169 65.5988 39.5613 65.1048 39.4431C64.6108 39.3248 64.0729 39.3534 63.6209 39.5861C63.413 39.6929 63.228 39.8417 63.0448 39.9867C62.835 40.1545 62.6481 39.8684 62.4402 40.0343C62.2304 40.2022 61.8985 40.4654 61.7459 40.6867C61.5933 40.9098 61.1775 41.6117 61.2557 41.8692" fill="#E6E7EB"></path>
<path d="M58.0801 41.2875C58.9289 40.5817 60.0046 40.2079 61.0823 39.9733C61.6164 39.8569 62.1733 39.7711 62.7055 39.8951C62.4232 39.3172 61.7976 38.9681 61.1643 38.8613C60.5311 38.7564 59.8826 38.8613 59.2512 38.9872C58.9861 39.0406 58.7191 39.0997 58.4692 39.2065C58.1869 39.3286 57.9351 39.5079 57.691 39.6929C57.3915 39.918 57.0959 40.1507 56.8556 40.4368C56.434 40.9403 56.2013 41.606 56.2586 42.2602C56.2891 42.5997 56.394 42.9278 56.497 43.254C56.5714 43.4847 56.6381 43.7174 56.7202 43.9444C56.8098 43.4409 56.846 42.9869 57.0864 42.5158C57.3381 42.0237 57.6929 41.6708 58.0782 41.2856L58.0801 41.2875Z" fill="#E6E7EB"></path>
<path d="M57.14 48.7718C56.6822 48.8043 56.2149 48.7165 55.7705 48.5887C55.328 48.4533 54.8988 48.2988 54.4754 48.1005C54.05 47.9078 53.6419 47.6599 53.268 47.3356C53.083 47.1716 52.9133 46.9827 52.7702 46.7634C52.6291 46.544 52.5261 46.2923 52.4746 46.0291C52.3678 45.4988 52.4936 44.9514 52.7378 44.5127C52.9896 44.0759 53.3214 43.704 53.7124 43.4217C54.0977 43.1318 54.525 42.922 54.9732 42.7732C55.4195 42.6359 55.904 42.5596 56.3561 42.6645C55.9002 42.7045 55.4825 42.859 55.0953 43.0669C54.7081 43.271 54.3476 43.5247 54.0348 43.8127C53.7258 44.1045 53.455 44.4326 53.2833 44.795C53.1097 45.1555 53.0372 45.5427 53.1116 45.9051C53.1765 46.2694 53.3939 46.6013 53.6876 46.8893C53.9776 47.183 54.34 47.4252 54.7138 47.656C55.0896 47.8792 55.4901 48.0966 55.8868 48.295C56.2836 48.4972 56.6975 48.6631 57.1419 48.7738L57.14 48.7718Z" fill="#262724"></path>
<path d="M56.9378 44.7093C56.6536 44.3144 56.4075 43.8986 56.2073 43.4447C56.0108 42.9926 55.8658 42.4929 55.8525 41.9512C55.8315 41.4133 55.9841 40.8335 56.2893 40.3567C56.5906 39.8779 57.0045 39.5136 57.447 39.2256C58.3397 38.661 59.3887 38.3921 60.4302 38.476C60.949 38.5237 61.464 38.661 61.9179 38.9376C62.1411 39.0787 62.3413 39.2504 62.4997 39.4564C62.658 39.6605 62.7724 39.897 62.8067 40.1392C62.5168 39.7463 62.1106 39.5327 61.6986 39.4163C61.2866 39.3076 60.8479 39.2828 60.4244 39.3191C59.5719 39.3915 58.7326 39.6834 58.0288 40.1297C57.6778 40.3529 57.3612 40.6199 57.1323 40.9289C56.9015 41.2321 56.7528 41.5888 56.6955 41.9951C56.5697 42.8153 56.7928 43.7537 56.9416 44.7093H56.9378Z" fill="#262724"></path>
<path d="M60.9355 42.8686C60.9794 42.1266 61.111 41.3771 61.4925 40.6751C61.6775 40.3299 61.9483 39.998 62.2745 39.7386C62.6006 39.4792 62.9821 39.2923 63.3788 39.1798C64.1761 38.9566 65.0382 39.0501 65.7611 39.401C66.1216 39.5822 66.4459 39.8073 66.711 40.1182C66.9647 40.4253 67.1478 40.8201 67.1058 41.2016C66.9513 40.8583 66.7053 40.6141 66.423 40.4348C66.1464 40.2593 65.8222 40.1277 65.5094 40.0381C64.878 39.8607 64.2162 39.8512 63.6077 40.0171C63.3044 40.0991 63.0183 40.2288 62.7589 40.4005C62.4995 40.5741 62.2726 40.7839 62.0589 41.049C61.6317 41.5659 61.3189 42.2239 60.9336 42.8667L60.9355 42.8686Z" fill="#262724"></path>
<path d="M65.2081 45.3463C65.1414 45.848 65.3416 46.3115 65.6411 46.6681C65.9386 47.0325 66.3297 47.3128 66.7416 47.5379C67.1594 47.7553 67.6038 47.9289 68.0634 48.0224C68.5212 48.1273 68.9904 48.1616 69.4501 48.1216C69.9117 48.0872 70.3599 47.9632 70.77 47.763C70.9741 47.6657 71.1782 47.536 71.346 47.4006C71.5062 47.2632 71.6398 47.103 71.6932 46.9161C71.7523 46.7311 71.7294 46.5251 71.6512 46.3248C71.5711 46.1246 71.4299 45.9395 71.264 45.7755C70.9283 45.4455 70.4877 45.2109 70.0223 45.0374C70.5182 45.0927 71.0141 45.2586 71.4414 45.5676C71.6531 45.7221 71.8438 45.9205 71.9831 46.1665C72.1223 46.4107 72.1853 46.7216 72.1204 47.021C72.0594 47.3205 71.8839 47.5799 71.6779 47.7706C71.4681 47.9575 71.2583 48.1044 71.0218 48.236C70.5545 48.4973 70.028 48.6385 69.5016 48.69C68.4449 48.7739 67.3844 48.4916 66.5128 47.9251C66.0779 47.6409 65.685 47.2785 65.4103 46.8322C65.2768 46.6071 65.1738 46.3611 65.1337 46.1017C65.0918 45.8442 65.1166 45.579 65.21 45.3463H65.2081Z" fill="#262724"></path>
<path d="M55.5949 44.9783C55.6579 45.1728 55.7284 45.3617 55.8219 45.5352C55.923 45.7069 56.0279 45.8709 56.1614 46.0121C56.4189 46.3001 56.7355 46.5156 57.0731 46.6758L57.3306 46.7865L57.5996 46.8704L57.7331 46.9123L57.8723 46.9409L58.147 46.9963C58.3339 47.023 58.5227 47.0401 58.7077 47.0592L59.2761 47.0726L59.1483 48.2093L58.517 48.0415C58.3091 47.969 58.1031 47.8984 57.9009 47.8183L57.6015 47.6791L57.4546 47.6104L57.3116 47.5265L57.0312 47.3568L56.766 47.1584C56.4246 46.8837 56.129 46.5518 55.9268 46.1742C55.82 45.9892 55.7494 45.787 55.6884 45.5886C55.635 45.3864 55.6102 45.1805 55.593 44.9783H55.5949Z" fill="#262724"></path>
<path d="M59.6709 45.8994C59.7872 46.176 59.9723 46.4011 60.1935 46.5689C60.4148 46.7367 60.6684 46.8474 60.9298 46.9237C61.1892 47.0057 61.4638 47.04 61.7347 47.0667C61.8739 47.0724 62.0093 47.0801 62.1486 47.082L62.5625 47.0724L62.4289 48.2092L61.9712 48.0681C61.8186 48.0147 61.6698 47.9536 61.521 47.8983C61.2254 47.7667 60.9355 47.6256 60.6723 47.4348C60.409 47.2498 60.163 47.0286 59.9837 46.7634C59.8025 46.5002 59.6919 46.1951 59.6709 45.8994Z" fill="#262724"></path>
<path d="M68.9005 51.4843C68.6201 51.5072 68.2444 51.5034 67.8781 51.4462C67.5863 51.4176 67.304 51.3718 67.0198 51.3184C66.7356 51.2707 66.4533 51.2154 66.1691 51.1639L65.3146 51.0304C64.174 50.8663 63.022 50.7462 61.8642 50.708C60.7065 50.6661 59.543 50.6928 58.3871 50.8091C57.2331 50.9312 56.0735 51.1067 54.9748 51.5053L54.7955 51.5701L54.744 51.368L53.962 48.3238L53.9258 48.1808L54.0994 48.0911C54.3969 47.9385 54.7116 47.8336 55.0263 47.7459C55.3449 47.6696 55.6691 47.6124 55.9915 47.5456L56.9623 47.3816L57.937 47.2481C59.2397 47.0897 60.5539 47.0325 61.8642 47.0478C63.1746 47.0669 64.483 47.1737 65.78 47.3511L66.749 47.4998L67.7122 47.6791L68.6716 47.8832C68.9901 47.9576 69.3087 48.0282 69.631 48.0911L69.8179 48.1274L69.7683 48.3219C69.4994 49.3805 69.1999 50.4467 68.8986 51.4824L68.9005 51.4843ZM68.7059 51.1562C68.9272 50.1625 69.1484 49.1993 69.4002 48.2284L69.5376 48.4611C69.2267 48.3734 68.9138 48.2914 68.5991 48.2132C68.2825 48.1464 67.9659 48.0816 67.6493 48.0205L66.6918 47.866L65.7305 47.7402C64.4468 47.5914 63.1536 47.5342 61.8642 47.5532C60.5748 47.5685 59.2874 47.6753 58.0114 47.8413L57.0558 47.9824L56.1059 48.1541C55.7912 48.2189 55.4784 48.2933 55.1598 48.3486C54.8451 48.4116 54.5247 48.4592 54.1909 48.4573L54.3282 48.2246L55.1103 51.2688L54.8776 51.1315C56.043 50.9483 57.1836 50.6851 58.347 50.5135C59.5086 50.338 60.6817 50.2178 61.8623 50.1759C63.0411 50.1377 64.2274 50.1644 65.4043 50.2941L66.2855 50.4086C66.5773 50.4582 66.8711 50.5001 67.161 50.5554C67.449 50.6203 67.7389 50.6928 68.0193 50.7824C68.2215 50.8606 68.4141 50.9941 68.7021 51.1524L68.7059 51.1562Z" fill="#262724"></path>
<path d="M54.2824 49.0923C54.805 48.9512 55.2895 48.8749 55.795 48.8138C56.2947 48.7566 56.7963 48.7223 57.2961 48.7185C57.7958 48.7166 58.2936 48.728 58.7876 48.7757C59.2816 48.8138 59.7718 48.8901 60.2582 48.9721C59.7642 48.9531 59.274 48.9416 58.7838 48.9683C58.2936 48.9855 57.8072 49.0389 57.3247 49.1037C56.8421 49.1724 56.3653 49.2678 55.898 49.3841C55.4345 49.5005 54.9576 49.6454 54.5456 49.8171L54.2805 49.0923H54.2824Z" fill="#262724"></path>
<path d="M62.927 49.8096C63.4305 49.7523 63.9398 49.7199 64.4472 49.7008C64.9564 49.6837 65.4657 49.6799 65.9769 49.7028C66.488 49.7275 67.0011 49.7676 67.5123 49.8496C68.0235 49.9354 68.5346 50.0518 69.0363 50.2425L68.8036 50.7652C68.3744 50.5534 67.9052 50.397 67.4265 50.2692C66.9458 50.1434 66.4499 50.0594 65.9521 49.9869C65.4543 49.9164 64.9507 49.8744 64.4453 49.842C63.9398 49.8134 63.4344 49.7981 62.927 49.8077V49.8096Z" fill="#262724"></path>
<path d="M70.8996 43.376C71.0236 44.0207 71.0217 44.7055 71.0369 45.3978L71.2239 45.5771C71.2677 45.3368 71.3078 45.0946 71.344 44.8504C71.4108 44.3488 71.4527 43.8319 71.4031 43.3055C71.3574 42.7828 71.2258 42.2507 70.953 41.7643C70.8176 41.5221 70.644 41.2951 70.4361 41.1005C70.2263 40.9079 69.986 40.7496 69.7285 40.6313C68.6928 40.1583 67.4683 40.3452 66.5832 40.9308C66.1312 41.2112 65.7516 41.5774 65.4197 41.9703C65.0936 42.3689 64.817 42.7962 64.5881 43.2482C65.2691 42.5063 65.9843 41.7986 66.8331 41.3714C67.0448 41.2665 67.2642 41.1788 67.4816 41.1139C67.701 41.051 67.9279 41.0128 68.1549 40.9995C68.6069 40.9708 69.0628 41.0395 69.4595 41.2245C69.8582 41.4038 70.1901 41.6976 70.4228 42.079C70.6631 42.4567 70.8061 42.9106 70.9015 43.376H70.8996Z" fill="#262724"></path>
<g style="mix-blend-mode:multiply">
<path d="M68.685 48.7356C68.7918 48.9149 68.8681 49.1343 68.7937 49.3288C68.7251 49.5119 68.5381 49.6283 68.3455 49.6702C68.1548 49.7103 67.9564 49.6874 67.7618 49.6683C66.5678 49.5462 65.3605 49.5672 64.1722 49.7255C65.3528 50.0517 66.6842 49.8514 67.7466 50.458C67.1 50.7212 66.3714 50.5285 65.6828 50.4198C64.8588 50.2882 64.0215 50.2806 63.188 50.273C63.228 50.3435 63.3082 50.3798 63.3825 50.4084C65.1278 51.0855 67.0962 50.8833 68.8967 51.3926C68.8033 50.3721 69.53 49.4394 69.5777 48.4152C69.5777 48.377 69.5796 48.337 69.5605 48.3026C69.5433 48.2721 69.5109 48.2511 69.4804 48.234C69.2381 48.089 68.973 47.9822 68.6984 47.9155C68.4962 47.8659 68.0308 47.7381 67.8362 47.8372C67.5559 47.9784 67.9945 48.0871 68.13 48.1729C68.355 48.3141 68.5477 48.5086 68.685 48.7356Z" fill="#E6E7EB"></path>
</g>
<g style="mix-blend-mode:multiply">
<path d="M56.5449 48.3294C56.4762 48.5869 57.3498 48.4 57.4261 48.3962C58.0288 48.3752 58.2272 48.6308 58.5801 48.852C57.8133 48.7166 56.9989 48.8616 56.3256 49.2545C56.1959 49.3308 56.0852 49.4376 56.0204 49.5749C55.9994 49.6188 55.9841 49.6684 55.9956 49.7161C56.0089 49.7695 56.0566 49.8057 56.1005 49.8382C56.3618 50.0213 56.6593 50.1567 56.9702 50.2273C57.1972 50.2788 57.4318 50.2978 57.6645 50.315C58.1967 50.355 58.7307 50.397 59.2629 50.4371C57.8476 50.5401 56.4476 50.8338 55.1125 51.3106C55.082 51.3221 55.0457 51.3316 55.0171 51.3144C54.9961 51.3011 54.9866 51.2744 54.9809 51.2496C54.7367 50.4027 54.4926 49.554 54.2484 48.7071C54.2027 48.5469 54.1607 48.3599 54.2599 48.2264C54.34 48.1177 54.4869 48.0834 54.6223 48.0605C55.0286 47.9918 55.4367 47.9384 55.8468 47.906C56.1959 47.8774 56.5487 47.8621 56.8863 47.7629C57.0923 47.7038 57.2869 47.6142 57.491 47.5493C57.9983 47.3834 58.5801 47.3719 59.0893 47.5341C58.7937 47.6294 56.6059 48.0986 56.5449 48.3275V48.3294Z" fill="#E6E7EB"></path>
</g>
</g>
<g clip-path="url(#clip0_222_9139)">
<path fill-rule="evenodd" clip-rule="evenodd" d="M62.1841 77.0866C62.212 77.0238 62.2742 76.9834 62.3429 76.9834C62.4116 76.9834 62.4739 77.0238 62.5018 77.0866L63.2514 78.773C63.2722 78.82 63.3166 78.8522 63.3678 78.8575L65.2032 79.0492C65.2715 79.0564 65.3293 79.1031 65.3504 79.1685C65.3717 79.2338 65.3524 79.3055 65.3014 79.3515L63.9292 80.5854C63.891 80.6199 63.874 80.6721 63.8847 80.7222L64.2695 82.5272C64.2838 82.5943 64.2573 82.6636 64.2016 82.704C64.1461 82.7444 64.072 82.7482 64.0125 82.7139L62.4149 81.7902C62.3704 81.7645 62.3155 81.7645 62.2709 81.7902L60.6734 82.7139C60.6139 82.7482 60.5397 82.7444 60.4842 82.704C60.4286 82.6636 60.402 82.5943 60.4164 82.5272L60.8012 80.7222C60.8118 80.6721 60.7948 80.6199 60.7566 80.5854L59.3845 79.3515C59.3334 79.3055 59.3142 79.2338 59.3354 79.1685C59.3566 79.1031 59.4144 79.0564 59.4826 79.0492L61.3181 78.8575C61.3692 78.8522 61.4136 78.82 61.4345 78.773L62.1841 77.0866Z" fill="#BB3E3E"></path>
</g>
<g clip-path="url(#clip1_222_9139)">
<path fill-rule="evenodd" clip-rule="evenodd" d="M54.2818 80.7457C54.3042 80.6954 54.3539 80.6631 54.4089 80.6631C54.4639 80.6631 54.5137 80.6954 54.536 80.7457L55.1357 82.0947C55.1523 82.1323 55.1879 82.1581 55.2288 82.1624L56.6971 82.3158C56.7518 82.3215 56.798 82.3589 56.8149 82.4112C56.8319 82.4634 56.8165 82.5208 56.7757 82.5576L55.678 83.5447C55.6474 83.5723 55.6338 83.614 55.6423 83.6541L55.9501 85.0981C55.9616 85.1518 55.9404 85.2072 55.8959 85.2395C55.8515 85.2719 55.7922 85.275 55.7445 85.2475L54.4665 84.5085C54.4309 84.488 54.3869 84.488 54.3513 84.5085L53.0733 85.2475C53.0257 85.275 52.9663 85.2719 52.9219 85.2395C52.8774 85.2072 52.8562 85.1518 52.8677 85.0981L53.1755 83.6541C53.184 83.614 53.1704 83.5723 53.1399 83.5447L52.0421 82.5576C52.0013 82.5208 51.9859 82.4634 52.0029 82.4112C52.0198 82.3589 52.0661 82.3215 52.1207 82.3158L53.589 82.1624C53.63 82.1581 53.6655 82.1323 53.6822 82.0947L54.2818 80.7457Z" fill="#BB3E3E"></path>
</g>
<g clip-path="url(#clip2_222_9139)">
<path fill-rule="evenodd" clip-rule="evenodd" d="M70.1512 80.7457C70.1735 80.6954 70.2233 80.6631 70.2783 80.6631C70.3333 80.6631 70.3831 80.6954 70.4054 80.7457L71.005 82.0947C71.0217 82.1323 71.0573 82.1581 71.0982 82.1624L72.5665 82.3158C72.6211 82.3215 72.6674 82.3589 72.6843 82.4112C72.7013 82.4634 72.6859 82.5208 72.6451 82.5576L71.5473 83.5447C71.5168 83.5723 71.5032 83.614 71.5117 83.6541L71.8195 85.0981C71.831 85.1518 71.8098 85.2072 71.7653 85.2395C71.7209 85.2719 71.6615 85.275 71.6139 85.2475L70.3359 84.5085C70.3003 84.488 70.2563 84.488 70.2207 84.5085L68.9427 85.2475C68.8951 85.275 68.8357 85.2719 68.7913 85.2395C68.7468 85.2072 68.7256 85.1518 68.7371 85.0981L69.0449 83.6541C69.0534 83.614 69.0398 83.5723 69.0092 83.5447L67.9115 82.5576C67.8707 82.5208 67.8553 82.4634 67.8723 82.4112C67.8892 82.3589 67.9354 82.3215 67.9901 82.3158L69.4584 82.1624C69.4993 82.1581 69.5349 82.1323 69.5515 82.0947L70.1512 80.7457Z" fill="#BB3E3E"></path>
</g>
<defs>
<filter id="filter0_d_222_9139" x="30.8674" y="51.8882" width="60.0108" height="15.3408" filterUnits="userSpaceOnUse" color-interpolation-filters="sRGB">
<feFlood flood-opacity="0" result="BackgroundImageFix"></feFlood>
<feColorMatrix in="SourceAlpha" type="matrix" values="0 0 0 0 0 0 0 0 0 0 0 0 0 0 0 0 0 0 127 0" result="hardAlpha"></feColorMatrix>
<feOffset dx="0.553977" dy="0.830966"></feOffset>
<feGaussianBlur stdDeviation="0.276989"></feGaussianBlur>
<feComposite in2="hardAlpha" operator="out"></feComposite>
<feColorMatrix type="matrix" values="0 0 0 0 0.558333 0 0 0 0 0.137257 0 0 0 0 0.137257 0 0 0 1 0"></feColorMatrix>
<feBlend mode="normal" in2="BackgroundImageFix" result="effect1_dropShadow_222_9139"></feBlend>
<feBlend mode="normal" in="SourceGraphic" in2="effect1_dropShadow_222_9139" result="shape"></feBlend>
</filter>
<filter id="filter1_d_222_9139" x="89.7703" y="56.3198" width="14.1358" height="15.2255" filterUnits="userSpaceOnUse" color-interpolation-filters="sRGB">
<feFlood flood-opacity="0" result="BackgroundImageFix"></feFlood>
<feColorMatrix in="SourceAlpha" type="matrix" values="0 0 0 0 0 0 0 0 0 0 0 0 0 0 0 0 0 0 127 0" result="hardAlpha"></feColorMatrix>
<feOffset dx="0.553977" dy="0.830966"></feOffset>
<feGaussianBlur stdDeviation="0.276989"></feGaussianBlur>
<feComposite in2="hardAlpha" operator="out"></feComposite>
<feColorMatrix type="matrix" values="0 0 0 0 0.558333 0 0 0 0 0.137257 0 0 0 0 0.137257 0 0 0 1 0"></feColorMatrix>
<feBlend mode="normal" in2="BackgroundImageFix" result="effect1_dropShadow_222_9139"></feBlend>
<feBlend mode="normal" in="SourceGraphic" in2="effect1_dropShadow_222_9139" result="shape"></feBlend>
</filter>
<filter id="filter2_d_222_9139" x="12.6689" y="63.0237" width="87.4954" height="13.7343" filterUnits="userSpaceOnUse" color-interpolation-filters="sRGB">
<feFlood flood-opacity="0" result="BackgroundImageFix"></feFlood>
<feColorMatrix in="SourceAlpha" type="matrix" values="0 0 0 0 0 0 0 0 0 0 0 0 0 0 0 0 0 0 127 0" result="hardAlpha"></feColorMatrix>
<feOffset dx="0.553977" dy="0.830966"></feOffset>
<feGaussianBlur stdDeviation="0.276989"></feGaussianBlur>
<feComposite in2="hardAlpha" operator="out"></feComposite>
<feColorMatrix type="matrix" values="0 0 0 0 0.558333 0 0 0 0 0.137257 0 0 0 0 0.137257 0 0 0 1 0"></feColorMatrix>
<feBlend mode="normal" in2="BackgroundImageFix" result="effect1_dropShadow_222_9139"></feBlend>
<feBlend mode="normal" in="SourceGraphic" in2="effect1_dropShadow_222_9139" result="shape"></feBlend>
</filter>
<filter id="filter3_d_222_9139" x="52.1593" y="38.4609" width="21.3716" height="14.7711" filterUnits="userSpaceOnUse" color-interpolation-filters="sRGB">
<feFlood flood-opacity="0" result="BackgroundImageFix"></feFlood>
<feColorMatrix in="SourceAlpha" type="matrix" values="0 0 0 0 0 0 0 0 0 0 0 0 0 0 0 0 0 0 127 0" result="hardAlpha"></feColorMatrix>
<feOffset dx="0.553977" dy="0.830966"></feOffset>
<feGaussianBlur stdDeviation="0.415483"></feGaussianBlur>
<feComposite in2="hardAlpha" operator="out"></feComposite>
<feColorMatrix type="matrix" values="0 0 0 0 0 0 0 0 0 0 0 0 0 0 0 0 0 0 0.25 0"></feColorMatrix>
<feBlend mode="normal" in2="BackgroundImageFix" result="effect1_dropShadow_222_9139"></feBlend>
<feBlend mode="normal" in="SourceGraphic" in2="effect1_dropShadow_222_9139" result="shape"></feBlend>
</filter>
<clipPath id="clip0_222_9139">
<rect width="6.89953" height="6.89953" fill="white" transform="translate(58.8958 76.4084)"></rect>
</clipPath>
<clipPath id="clip1_222_9139">
<rect width="5.51963" height="5.51963" fill="white" transform="translate(51.6514 80.2031)"></rect>
</clipPath>
<clipPath id="clip2_222_9139">
<rect width="5.51963" height="5.51963" fill="white" transform="translate(67.5203 80.2031)"></rect>
</clipPath>
<clipPath id="SvgjsClipPath1104"><rect width="1000" height="1000" x="0" y="0" rx="400" ry="400"></rect></clipPath></defs>
</svg></svg></g></g></svg>